<svg width="98" height="81" viewBox="0 0 98 81" fill="none" xmlns="http://www.w3.org/2000/svg">
<g clip-path="url(#clip0_1_5769)">
<path d="M62.2372 5.25319L49.2011 0.107422L0.275391 19.0257L49 41.4999L97.7244 19.0177L64.8872 6.43209" stroke="#05C2DF" stroke-miterlimit="10"/>
<path d="M47.9541 15.9346L74.4961 28.098V71.9286" stroke="#05C2DF" stroke-miterlimit="10"/>
<path d="M16 26L16 40" stroke="#05C2DF" stroke-miterlimit="10"/>
<path d="M16.0801 43.1498V56.7948C16.0801 56.7948 47.5813 83.9774 81.7385 56.7948V26.3096" stroke="#05C2DF" stroke-miterlimit="10"/>
<path d="M74.4965 80.8999C76.9474 80.8999 78.9343 78.9036 78.9343 76.4412C78.9343 73.9787 76.9474 71.9824 74.4965 71.9824C72.0455 71.9824 70.0586 73.9787 70.0586 76.4412C70.0586 78.9036 72.0455 80.8999 74.4965 80.8999Z" stroke="#05C2DF" stroke-miterlimit="10"/>
</g>
<defs>
<clipPath id="clip0_1_5769">
<rect width="98" height="81" fill="white"/>
</clipPath>
</defs>
</svg>
