<svg width="40" height="37" viewBox="0 0 40 37" fill="none" xmlns="http://www.w3.org/2000/svg">
<path d="M20.5 37L16.6029 32.5L24.3971 32.5L20.5 37Z" fill="#05C2DF"/>
<path d="M1.27841 6.36364H3.40909L7.11364 15.4091H7.25L10.9545 6.36364H13.0852V18H11.4148V9.57955H11.3068L7.875 17.983H6.48864L3.05682 9.57386H2.94886V18H1.27841V6.36364ZM19.1776 18.1761C18.3594 18.1761 17.6454 17.9886 17.0355 17.6136C16.4257 17.2386 15.9522 16.714 15.6151 16.0398C15.2779 15.3655 15.1094 14.5777 15.1094 13.6761C15.1094 12.7708 15.2779 11.9792 15.6151 11.3011C15.9522 10.6231 16.4257 10.0966 17.0355 9.72159C17.6454 9.34659 18.3594 9.15909 19.1776 9.15909C19.9957 9.15909 20.7098 9.34659 21.3196 9.72159C21.9295 10.0966 22.4029 10.6231 22.7401 11.3011C23.0772 11.9792 23.2457 12.7708 23.2457 13.6761C23.2457 14.5777 23.0772 15.3655 22.7401 16.0398C22.4029 16.714 21.9295 17.2386 21.3196 17.6136C20.7098 17.9886 19.9957 18.1761 19.1776 18.1761ZM19.1832 16.75C19.7135 16.75 20.1529 16.6098 20.5014 16.3295C20.8499 16.0492 21.1075 15.6761 21.2741 15.2102C21.4446 14.7443 21.5298 14.2311 21.5298 13.6705C21.5298 13.1136 21.4446 12.6023 21.2741 12.1364C21.1075 11.6667 20.8499 11.2898 20.5014 11.0057C20.1529 10.7216 19.7135 10.5795 19.1832 10.5795C18.6491 10.5795 18.206 10.7216 17.8537 11.0057C17.5052 11.2898 17.2457 11.6667 17.0753 12.1364C16.9086 12.6023 16.8253 13.1136 16.8253 13.6705C16.8253 14.2311 16.9086 14.7443 17.0753 15.2102C17.2457 15.6761 17.5052 16.0492 17.8537 16.3295C18.206 16.6098 18.6491 16.75 19.1832 16.75ZM25.142 18V9.27273H26.7841V10.6591H26.875C27.0341 10.1894 27.3144 9.82008 27.7159 9.55114C28.1212 9.27841 28.5795 9.14205 29.0909 9.14205C29.197 9.14205 29.322 9.14583 29.4659 9.15341C29.6136 9.16098 29.7292 9.17045 29.8125 9.18182V10.8068C29.7443 10.7879 29.6231 10.767 29.4489 10.7443C29.2746 10.7178 29.1004 10.7045 28.9261 10.7045C28.5246 10.7045 28.1667 10.7898 27.8523 10.9602C27.5417 11.1269 27.2955 11.3598 27.1136 11.6591C26.9318 11.9545 26.8409 12.2917 26.8409 12.6705V18H25.142ZM34.7315 18.1761C33.8717 18.1761 33.1312 17.9924 32.5099 17.625C31.8925 17.2538 31.4152 16.733 31.0781 16.0625C30.7448 15.3883 30.5781 14.5985 30.5781 13.6932C30.5781 12.7992 30.7448 12.0114 31.0781 11.3295C31.4152 10.6477 31.8849 10.1155 32.4872 9.73295C33.0933 9.35038 33.8016 9.15909 34.6122 9.15909C35.1046 9.15909 35.5819 9.24053 36.044 9.40341C36.5062 9.56629 36.9209 9.82197 37.2884 10.1705C37.6558 10.5189 37.9455 10.9716 38.1577 11.5284C38.3698 12.0814 38.4759 12.7538 38.4759 13.5455V14.1477H31.5384V12.875H36.8111C36.8111 12.428 36.7202 12.0322 36.5384 11.6875C36.3565 11.339 36.1009 11.0644 35.7713 10.8636C35.4455 10.6629 35.063 10.5625 34.6236 10.5625C34.1463 10.5625 33.7296 10.6799 33.3736 10.9148C33.0213 11.1458 32.7486 11.4489 32.5554 11.8239C32.366 12.1951 32.2713 12.5985 32.2713 13.0341V14.0284C32.2713 14.6117 32.3736 15.108 32.5781 15.517C32.7865 15.9261 33.0762 16.2386 33.4474 16.4545C33.8187 16.6667 34.2524 16.7727 34.7486 16.7727C35.0705 16.7727 35.3641 16.7273 35.6293 16.6364C35.8944 16.5417 36.1236 16.4015 36.3168 16.2159C36.5099 16.0303 36.6577 15.8011 36.7599 15.5284L38.3679 15.8182C38.2391 16.2917 38.008 16.7064 37.6747 17.0625C37.3452 17.4148 36.9304 17.6894 36.4304 17.8864C35.9342 18.0795 35.3679 18.1761 34.7315 18.1761Z" fill="#05C2DF"/>
</svg>
