<svg width="14" height="14" viewBox="0 0 14 14" fill="none" xmlns="http://www.w3.org/2000/svg">
<path d="M0.881622 8.54572C0.84552 8.75627 0.820312 8.96943 0.820312 9.1875C0.820312 11.8411 3.6348 14 7.02734 14C10.4199 14 13.1797 11.8411 13.1797 9.1875C13.1797 8.96943 13.1545 8.75627 13.1184 8.54572C13.6503 8.24995 14 7.66582 14 7C14 6.03488 13.2642 5.25 12.3594 5.25C11.9459 5.25 11.5574 5.41532 11.2595 5.70356C10.2286 4.93691 8.86076 4.44928 7.34842 4.38776L8.13327 1.14035L9.90324 1.80093C9.9292 2.74212 10.6506 3.5 11.5391 3.5C12.4439 3.5 13.1797 2.71512 13.1797 1.75C13.1797 0.78488 12.4439 0 11.5391 0C10.9082 0 10.3658 0.385775 10.0914 0.943929L7.56204 0.000455729L6.49905 4.39596C5.06863 4.49167 3.7243 4.97189 2.74046 5.70356C2.44257 5.41532 2.05409 5.25 1.64062 5.25C0.735825 5.25 0 6.03488 0 7C0 7.66582 0.349701 8.24995 0.881622 8.54572ZM9.48828 7C10.1667 7 10.7188 7.5888 10.7188 8.3125C10.7188 9.0362 10.1667 9.625 9.48828 9.625C8.80981 9.625 8.25781 9.0362 8.25781 8.3125C8.25781 7.5888 8.80981 7 9.48828 7ZM9.3129 10.8649L9.66367 11.6553C8.89388 12.0445 7.98224 12.25 7.02734 12.25C6.07245 12.25 5.10612 12.0445 4.33633 11.6553L4.6871 10.8648C6.009 11.5322 7.991 11.5322 9.3129 10.8649ZM4.51172 7C5.19019 7 5.74219 7.5888 5.74219 8.3125C5.74219 9.0362 5.19019 9.625 4.51172 9.625C3.83325 9.625 3.28125 9.0362 3.28125 8.3125C3.28125 7.5888 3.83325 7 4.51172 7Z" fill="white"/>
</svg>
