<svg width="107" height="78" viewBox="0 0 107 78" fill="none" xmlns="http://www.w3.org/2000/svg">
<circle cx="53.6536" cy="39.137" r="12.8303" stroke="#05C2DF"/>
<path d="M67.3174 25.5078C71.7352 28.4303 74.6491 33.4434 74.6491 39.1369C74.6491 44.8305 71.7352 49.8435 67.3174 52.766" stroke="#05C2DF"/>
<path d="M67.4854 52.6338L73.484 60.2987" stroke="#05C2DF"/>
<path d="M73.316 60.4654C80.3444 55.8562 84.9801 47.9499 84.9801 38.9703C84.9801 29.9906 80.3444 22.0844 73.316 17.4751L67.3174 25.6399" stroke="#05C2DF"/>
<path d="M79.9824 9.47705C89.4205 15.7299 95.6456 26.4555 95.6456 38.6372C95.6456 50.8188 89.4205 61.5444 79.9824 67.7973" stroke="#05C2DF"/>
<path d="M79.9821 9.6436L85.9807 1.14551C98.2301 9.22066 106.309 23.072 106.309 38.8037C106.309 54.5355 98.2301 68.3867 85.9807 76.4619L79.8154 67.7972" stroke="#05C2DF"/>
<path d="M39.9893 25.5078C35.5714 28.4303 32.6576 33.4434 32.6576 39.1369C32.6576 44.8305 35.5714 49.8435 39.9893 52.766" stroke="#05C2DF"/>
<path d="M39.8242 52.6338L33.8256 60.2987" stroke="#05C2DF"/>
<path d="M33.9906 60.4654C26.9623 55.8562 22.3266 47.9499 22.3266 38.9703C22.3266 29.9906 26.9623 22.0844 33.9906 17.4751L39.9893 25.6399" stroke="#05C2DF"/>
<path d="M27.3281 9.47705C17.8901 15.7299 11.665 26.4555 11.665 38.6372C11.665 50.8188 17.8901 61.5444 27.3281 67.7973" stroke="#05C2DF"/>
<path d="M27.3275 9.6436L21.3289 1.14551C9.07945 9.22066 1.0001 23.072 1.0001 38.8037C1.0001 54.5355 9.07945 68.3867 21.3289 76.4619L27.4941 67.7972" stroke="#05C2DF"/>
</svg>
