<svg width="55" height="34" viewBox="0 0 55 34" fill="none" xmlns="http://www.w3.org/2000/svg">
<g clip-path="url(#clip0_1_10842)">
<path d="M53.1671 0H1.83289C0.820615 0 0 0.811701 0 1.81299V32.187C0 33.1883 0.820615 34 1.83289 34H53.1671C54.1794 34 55 33.1883 55 32.187V1.81299C55 0.811701 54.1794 0 53.1671 0Z" fill="#F9F9F9"/>
<path fill-rule="evenodd" clip-rule="evenodd" d="M34.1012 26.7614L34.6099 26.7484L35.1141 26.7137L35.6052 26.6486L36.092 26.5619L36.5699 26.4534L37.0391 26.3233L37.4995 26.1672L37.9468 25.9937L38.3853 25.7985L38.815 25.5816L39.2272 25.3474L39.6306 25.0915L40.0165 24.8183L40.3892 24.5277L40.7487 24.2241L41.0908 23.8988L41.4196 23.5561L41.731 23.2005L42.0204 22.8361L42.2966 22.4501L42.5553 22.0554L42.7921 21.6434L43.0114 21.2227L43.2087 20.7889L43.3841 20.3465L43.5419 19.8911L43.6779 19.427L43.7875 18.9543L43.8708 18.4728L43.9366 17.9827L43.9716 17.4883L43.9848 16.9851L43.9716 16.482L43.9366 15.9876L43.8708 15.5018L43.7875 15.0247L43.6779 14.5519L43.5419 14.0922L43.3841 13.6368L43.2087 13.1987L43.0114 12.765L42.7921 12.3442L42.5553 11.9409L42.2966 11.5418L42.0204 11.1602L41.731 10.7958L41.4196 10.4402L41.0908 10.0975L40.7487 9.77657L40.3892 9.46862L40.0165 9.18236L39.6306 8.90911L39.2272 8.65321L38.815 8.419L38.3853 8.20647L37.9468 8.00696L37.4995 7.83347L37.0391 7.67732L36.5699 7.5472L36.092 7.43877L35.6052 7.35203L35.1141 7.2913L34.6099 7.25661L34.1012 7.23926L33.5926 7.25661L33.0927 7.2913L32.5972 7.35203L32.1105 7.43877L31.6369 7.5472L31.1677 7.67732L30.7117 7.83347L30.2644 8.00696L29.8259 8.20647L29.405 8.419L28.9928 8.65321L28.5894 8.90911L28.2079 9.18236L27.8308 9.46862L27.4756 9.77657L27.1336 10.0975L26.8091 10.4402L26.4978 10.7958L26.204 11.1602L25.9321 11.5418L25.6778 11.9409L25.441 12.3442L25.2218 12.765L25.0244 13.1987L24.8446 13.6368L24.6956 14.0922L24.5596 14.5519L24.45 15.0247L24.3623 15.5018L24.3009 15.9876L24.2658 16.482L24.2527 16.9851L24.2658 17.4883L24.3009 17.9827L24.3623 18.4728L24.45 18.9543L24.5596 19.427L24.6956 19.8911L24.8446 20.3465L25.0244 20.7889L25.2218 21.2227L25.441 21.6434L25.6778 22.0554L25.9321 22.4501L26.204 22.8361L26.4978 23.2005L26.8091 23.5561L27.1336 23.8988L27.4756 24.2241L27.8308 24.5277L28.2079 24.8183L28.5894 25.0915L28.9928 25.3474L29.405 25.5816L29.8259 25.7985L30.2644 25.9937L30.7117 26.1672L31.1677 26.3233L31.6369 26.4534L32.1105 26.5619L32.5972 26.6486L33.0927 26.7137L33.5926 26.7484L34.1012 26.7614Z" fill="#FBB231"/>
<path fill-rule="evenodd" clip-rule="evenodd" d="M20.899 26.7614L21.4033 26.7484L21.9076 26.7137L22.4031 26.6486L22.8854 26.5619L23.3634 26.4534L23.8326 26.3233L24.2886 26.1672L24.7358 25.9937L25.1743 25.7985L25.5953 25.5816L26.0075 25.3474L26.4065 25.0915L26.7968 24.8183L27.1695 24.5277L27.5247 24.2241L27.8667 23.8988L28.1912 23.5561L28.5025 23.2005L28.7963 22.8361L29.0681 22.4501L29.3269 22.0554L29.5593 21.6434L29.7785 21.2227L29.9758 20.7889L30.1556 20.3465L30.3047 19.8911L30.4406 19.427L30.5502 18.9543L30.6336 18.4728L30.6993 17.9827L30.7344 17.4883L30.7476 16.9851L30.7344 16.482L30.6993 15.9876L30.6336 15.5018L30.5502 15.0247L30.4406 14.5519L30.3047 14.0922L30.1556 13.6368L29.9758 13.1987L29.7785 12.765L29.5593 12.3442L29.3269 11.9409L29.0681 11.5418L28.7963 11.1602L28.5025 10.7958L28.1912 10.4402L27.8667 10.0975L27.5247 9.77657L27.1695 9.46862L26.7968 9.18236L26.4065 8.90911L26.0075 8.65321L25.5953 8.419L25.1743 8.20647L24.7358 8.00696L24.2886 7.83347L23.8326 7.67732L23.3634 7.5472L22.8854 7.43877L22.4031 7.35203L21.9076 7.2913L21.4033 7.25661L20.899 7.23926L20.3904 7.25661L19.8861 7.2913L19.395 7.35203L18.9083 7.43877L18.4303 7.5472L17.9611 7.67732L17.5007 7.83347L17.0535 8.00696L16.615 8.20647L16.1853 8.419L15.7731 8.65321L15.3697 8.90911L14.9838 9.18236L14.6111 9.46862L14.2515 9.77657L13.9095 10.0975L13.5806 10.4402L13.2737 10.7958L12.9799 11.1602L12.7036 11.5418L12.4449 11.9409L12.2081 12.3442L11.9889 12.765L11.7916 13.1987L11.6118 13.6368L11.4583 14.0922L11.3224 14.5519L11.2128 15.0247L11.1294 15.5018L11.0637 15.9876L11.0286 16.482L11.0154 16.9851L11.0286 17.4883L11.0637 17.9827L11.1294 18.4728L11.2128 18.9543L11.3224 19.427L11.4583 19.8911L11.6118 20.3465L11.7916 20.7889L11.9889 21.2227L12.2081 21.6434L12.4449 22.0554L12.7036 22.4501L12.9799 22.8361L13.2737 23.2005L13.5806 23.5561L13.9095 23.8988L14.2515 24.2241L14.6111 24.5277L14.9838 24.8183L15.3697 25.0915L15.7731 25.3474L16.1853 25.5816L16.615 25.7985L17.0535 25.9937L17.5007 26.1672L17.9611 26.3233L18.4303 26.4534L18.9083 26.5619L19.395 26.6486L19.8861 26.7137L20.3904 26.7484L20.899 26.7614Z" fill="#EC1C2E"/>
<path fill-rule="evenodd" clip-rule="evenodd" d="M26.3445 10.9866H31.5889V10.4531H26.7962L26.3445 10.9866Z" fill="#FBB231"/>
<path fill-rule="evenodd" clip-rule="evenodd" d="M25.5602 12.162H31.5895V11.6328H25.876L25.5602 12.162Z" fill="#FBB231"/>
<path fill-rule="evenodd" clip-rule="evenodd" d="M24.9725 13.3368H31.5894V12.8076H25.2049L24.9725 13.3368Z" fill="#FBB231"/>
<path fill-rule="evenodd" clip-rule="evenodd" d="M24.5691 14.5165H31.5893V13.9873H24.7357L24.5691 14.5165Z" fill="#FBB231"/>
<path fill-rule="evenodd" clip-rule="evenodd" d="M24.8058 20.2118H31.6025V19.6826H24.6392L24.8058 20.2118Z" fill="#FBB231"/>
<path fill-rule="evenodd" clip-rule="evenodd" d="M25.305 21.3915H31.6017V20.8623H25.0551L25.305 21.3915Z" fill="#FBB231"/>
<path fill-rule="evenodd" clip-rule="evenodd" d="M26.011 22.5672H31.6018V22.0381H25.6777L26.011 22.5672Z" fill="#FBB231"/>
<path fill-rule="evenodd" clip-rule="evenodd" d="M26.9843 23.7464H31.6016V23.2129H26.5151L26.9843 23.7464Z" fill="#FBB231"/>
<path fill-rule="evenodd" clip-rule="evenodd" d="M24.3363 15.6922H31.589V15.1631H24.4372L24.3363 15.6922Z" fill="#FBB231"/>
<path fill-rule="evenodd" clip-rule="evenodd" d="M28.7562 19.036H31.5187V18.5068H28.8571L28.7562 19.036Z" fill="#FBB231"/>
<path fill-rule="evenodd" clip-rule="evenodd" d="M28.9755 17.8606H31.5187V17.3271H29.0763L28.9755 17.8606Z" fill="#FBB231"/>
<path fill-rule="evenodd" clip-rule="evenodd" d="M24.152 17.3271H24.8712V17.8606H24.1871L24.152 17.3271Z" fill="#FBB231"/>
<path fill-rule="evenodd" clip-rule="evenodd" d="M22.81 16.6858L22.7617 16.6815L22.7179 16.6772L22.674 16.6728L22.6302 16.6642L22.5907 16.6598L22.5469 16.6511L22.503 16.6425L22.4548 16.6381L22.4109 16.6295H22.3583L22.2969 16.6251L22.2355 16.6208H22.1654L22.0865 16.6251L21.9988 16.6295L21.9023 16.6381L21.8365 16.6468L21.7751 16.6598L21.7181 16.6772L21.6699 16.6945L21.6217 16.7205L21.5778 16.7466L21.5427 16.7813L21.512 16.8073L21.4945 16.8463L21.477 16.881L21.4726 16.9201V16.9591L21.4813 17.0025L21.4945 17.0458L21.5208 17.0892L21.5559 17.1326L21.6217 17.1933L21.7006 17.2454L21.7927 17.2844L21.8935 17.3234L21.9988 17.3538L22.1084 17.3928L22.2224 17.4319L22.3276 17.4752L22.4285 17.5316L22.5206 17.601L22.6039 17.6834L22.674 17.7832L22.7267 17.909L22.7617 18.0564L22.7749 18.2343L22.7617 18.4424L22.7354 18.5986L22.696 18.733L22.6433 18.8588L22.5776 18.9673L22.4986 19.0627L22.4153 19.1407L22.3189 19.2145L22.218 19.2795L22.1084 19.3273L21.9988 19.3706L21.8891 19.401L21.7707 19.4313L21.6567 19.4487L21.5471 19.4574L21.4375 19.466L21.3366 19.4704H21.1919L21.0604 19.466H20.942L20.8324 19.4617L20.7315 19.4574L20.6438 19.453L20.5649 19.4444L20.486 19.4357L20.4158 19.4313L20.3544 19.4183L20.2886 19.4053L20.2316 19.388L20.179 19.375L20.122 19.3576L20.0694 19.3359L20.0124 19.3186L20.1615 18.5899L20.1922 18.5986L20.2316 18.6073L20.2755 18.6203L20.3325 18.6333L20.3939 18.6463L20.4597 18.6593L20.5342 18.6767L20.6131 18.6897L20.6964 18.7027L20.7841 18.7157L20.8718 18.7244L20.9639 18.733L21.0604 18.7374L21.1612 18.7417H21.2533L21.3498 18.7374L21.4463 18.72L21.5252 18.6897L21.5866 18.655L21.6304 18.6116L21.6655 18.5639L21.6918 18.5118L21.7094 18.4598L21.7225 18.4077L21.7269 18.3123L21.6962 18.2299L21.6392 18.1649L21.5559 18.1085L21.4594 18.0608L21.341 18.0087L21.2139 17.9653L21.0823 17.9133L20.9508 17.8526L20.8236 17.7832L20.7052 17.6964L20.6 17.5967L20.5167 17.4709L20.4553 17.3234L20.4246 17.1456L20.429 16.9331L20.4465 16.8073L20.4684 16.6815L20.5035 16.5731L20.543 16.4646L20.5956 16.3692L20.657 16.2825L20.7271 16.2001L20.8104 16.1263L20.9069 16.0656L21.0122 16.0136L21.1305 15.9615L21.2665 15.9268L21.4156 15.8965L21.5778 15.8748L21.7576 15.8618L21.9549 15.8574H22.0777L22.1917 15.8618L22.2925 15.8661H22.389L22.4723 15.8748L22.5469 15.8791L22.6126 15.8878L22.674 15.8921L22.731 15.9008L22.7749 15.9095L22.8187 15.9181L22.8582 15.9225L22.8933 15.9312H22.924L22.9547 15.9398L22.981 15.9442L22.81 16.6858Z" fill="white"/>
<path d="M22.81 16.6858L22.7617 16.6815L22.7179 16.6772L22.674 16.6728L22.6302 16.6642L22.5907 16.6598L22.5469 16.6511L22.503 16.6425L22.4548 16.6381L22.4109 16.6295H22.3583L22.2969 16.6251L22.2355 16.6208H22.1654L22.0865 16.6251L21.9988 16.6295L21.9023 16.6381L21.8365 16.6468L21.7751 16.6598L21.7181 16.6772L21.6699 16.6945L21.6217 16.7205L21.5778 16.7466L21.5427 16.7813L21.512 16.8073L21.4945 16.8463L21.477 16.881L21.4726 16.9201V16.9591L21.4813 17.0025L21.4945 17.0458L21.5208 17.0892L21.5559 17.1326L21.6217 17.1933L21.7006 17.2454L21.7927 17.2844L21.8935 17.3234L21.9988 17.3538L22.1084 17.3928L22.2224 17.4319L22.3276 17.4752L22.4285 17.5316L22.5206 17.601L22.6039 17.6834L22.674 17.7832L22.7267 17.909L22.7617 18.0564L22.7749 18.2343L22.7617 18.4424L22.7354 18.5986L22.696 18.733L22.6433 18.8588L22.5776 18.9673L22.4986 19.0627L22.4153 19.1407L22.3189 19.2145L22.218 19.2795L22.1084 19.3273L21.9988 19.3706L21.8891 19.401L21.7707 19.4313L21.6567 19.4487L21.5471 19.4574L21.4375 19.466L21.3366 19.4704H21.1919L21.0604 19.466H20.942L20.8324 19.4617L20.7315 19.4574L20.6438 19.453L20.5649 19.4444L20.486 19.4357L20.4158 19.4313L20.3544 19.4183L20.2886 19.4053L20.2316 19.388L20.179 19.375L20.122 19.3576L20.0694 19.3359L20.0124 19.3186L20.1615 18.5899L20.1922 18.5986L20.2316 18.6073L20.2755 18.6203L20.3325 18.6333L20.3939 18.6463L20.4597 18.6593L20.5342 18.6767L20.6131 18.6897L20.6964 18.7027L20.7841 18.7157L20.8718 18.7244L20.9639 18.733L21.0604 18.7374L21.1612 18.7417H21.2533L21.3498 18.7374L21.4463 18.72L21.5252 18.6897L21.5866 18.655L21.6304 18.6116L21.6655 18.5639L21.6918 18.5118L21.7094 18.4598L21.7225 18.4077L21.7269 18.3123L21.6962 18.2299L21.6392 18.1649L21.5559 18.1085L21.4594 18.0608L21.341 18.0087L21.2139 17.9653L21.0823 17.9133L20.9508 17.8526L20.8236 17.7832L20.7052 17.6964L20.6 17.5967L20.5167 17.4709L20.4553 17.3234L20.4246 17.1456L20.429 16.9331L20.4465 16.8073L20.4684 16.6815L20.5035 16.5731L20.543 16.4646L20.5956 16.3692L20.657 16.2825L20.7271 16.2001L20.8104 16.1263L20.9069 16.0656L21.0122 16.0136L21.1305 15.9615L21.2665 15.9268L21.4156 15.8965L21.5778 15.8748L21.7576 15.8618L21.9549 15.8574H22.0777L22.1917 15.8618L22.2925 15.8661H22.389L22.4723 15.8748L22.5469 15.8791L22.6126 15.8878L22.674 15.8921L22.731 15.9008L22.7749 15.9095L22.8187 15.9181L22.8582 15.9225L22.8933 15.9312H22.924L22.9547 15.9398L22.981 15.9442L22.81 16.6858Z" stroke="white" stroke-width="0.22" stroke-miterlimit="2.61"/>
<path fill-rule="evenodd" clip-rule="evenodd" d="M23.5994 15.1289H24.5203L24.3843 15.927H24.9412L24.8185 16.673L24.2353 16.6556L23.9152 18.4903L23.9108 18.5554L23.9283 18.6117L23.9634 18.6551L24.0029 18.6898L24.0643 18.7158L24.13 18.7332L24.2046 18.7462L24.2835 18.7549L24.358 18.7505L24.4238 18.7462L24.4852 18.7332L24.5378 18.7202L24.5817 18.7072L24.6124 18.6985L24.6299 18.6898H24.6387L24.5203 19.3014L24.4984 19.3187L24.472 19.3317L24.4501 19.3447L24.4282 19.3578L24.4063 19.3664L24.3756 19.3751L24.3493 19.3881L24.3186 19.3968L24.2835 19.4055L24.2528 19.4141L24.2133 19.4185L24.1739 19.4272L24.13 19.4315L24.0774 19.4402L24.0248 19.4445L23.9678 19.4532H23.7135L23.5819 19.4445L23.4679 19.4315L23.3583 19.4098L23.2706 19.3881L23.1917 19.3578L23.1303 19.3231L23.0733 19.284L23.0294 19.2407L22.9943 19.1973L22.9724 19.1409L22.9549 19.0845L22.9461 19.0195L22.9417 18.9544V18.8807L22.9549 18.8026L22.9636 18.7202L23.5994 15.1289Z" fill="white"/>
<path d="M23.5994 15.1289H24.5203L24.3843 15.927H24.9412L24.8185 16.673L24.2353 16.6556L23.9152 18.4903L23.9108 18.5554L23.9283 18.6117L23.9634 18.6551L24.0029 18.6898L24.0643 18.7158L24.13 18.7332L24.2046 18.7462L24.2835 18.7549L24.358 18.7505L24.4238 18.7462L24.4852 18.7332L24.5378 18.7202L24.5817 18.7072L24.6124 18.6985L24.6299 18.6898H24.6387L24.5203 19.3014L24.4984 19.3187L24.472 19.3317L24.4501 19.3447L24.4282 19.3578L24.4063 19.3664L24.3756 19.3751L24.3493 19.3881L24.3186 19.3968L24.2835 19.4055L24.2528 19.4141L24.2133 19.4185L24.1739 19.4272L24.13 19.4315L24.0774 19.4402L24.0248 19.4445L23.9678 19.4532H23.7135L23.5819 19.4445L23.4679 19.4315L23.3583 19.4098L23.2706 19.3881L23.1917 19.3578L23.1303 19.3231L23.0733 19.284L23.0294 19.2407L22.9943 19.1973L22.9724 19.1409L22.9549 19.0845L22.9461 19.0195L22.9417 18.9544V18.8807L22.9549 18.8026L22.9636 18.7202L23.5994 15.1289Z" stroke="white" stroke-width="0.22" stroke-miterlimit="2.61"/>
<path d="M25.6782 17.9133L25.665 17.9653L25.6606 18.0261L25.6694 18.0911L25.6825 18.1518L25.7045 18.2126L25.7352 18.2733L25.7702 18.3384L25.8097 18.3904L25.8579 18.4468L25.9062 18.4988L25.9588 18.5465L26.0202 18.5856L26.0772 18.6246L26.1473 18.6506L26.2131 18.6767L26.2789 18.6897L26.3666 18.7027L26.4499 18.7114L26.5332 18.72L26.6209 18.7287L26.7086 18.733H26.7963L26.884 18.7287L26.9761 18.72L27.0638 18.707L27.1559 18.6897L27.248 18.6723L27.3357 18.642L27.4321 18.6073L27.5242 18.5682L27.6207 18.5162L27.7171 18.4598L27.5856 19.2665L27.5286 19.2926L27.476 19.3229L27.4234 19.3403L27.3751 19.362L27.3225 19.375L27.2699 19.3923L27.2173 19.4053L27.1603 19.4183L27.0989 19.427L27.0331 19.4313L26.9629 19.44L26.8884 19.4444L26.8007 19.4487H26.713L26.6078 19.453H26.4981L26.3359 19.4487L26.1693 19.4313L26.0026 19.4097L25.836 19.3706L25.6738 19.3229L25.5159 19.2579L25.3668 19.1754L25.2265 19.08L25.095 18.9673L24.9853 18.8328L24.8889 18.681L24.8056 18.5075L24.7529 18.3123L24.7135 18.0911L24.7047 17.8482L24.7223 17.5793L24.7354 17.4752L24.7529 17.3538L24.7793 17.2237L24.8187 17.0849L24.867 16.9417L24.9283 16.803L25.0029 16.6598L25.095 16.521L25.2046 16.3866L25.3318 16.2608L25.4808 16.1524L25.6475 16.0526L25.8404 15.9702L26.0553 15.9095L26.2964 15.8704L26.5639 15.8574L26.6955 15.8618L26.8314 15.8748L26.9673 15.8965L27.1033 15.9312L27.2392 15.9789L27.3664 16.0396L27.4891 16.1177L27.5988 16.2087L27.6952 16.3215L27.7785 16.456L27.8443 16.6034L27.8925 16.7813L27.9189 16.9764L27.9232 17.202L27.9013 17.4492L27.8487 17.7268L27.8312 17.9263H25.4063L25.5598 17.2801H27.0156L27.0243 17.1976L27.0199 17.1196L27.0112 17.0458L27.0024 16.9808L26.9761 16.9157L26.9542 16.8593L26.9191 16.8116L26.8884 16.7683L26.8489 16.7249L26.8051 16.6945L26.7569 16.6642L26.7042 16.6381L26.6516 16.6164L26.599 16.6034L26.542 16.5948L26.4806 16.5861L26.4192 16.5904L26.3578 16.5991L26.3008 16.6164L26.2438 16.6338L26.1868 16.6598L26.1386 16.6902L26.0903 16.7249L26.0465 16.7683L26.0026 16.8116L25.9632 16.8593L25.9281 16.9157L25.8974 16.9721L25.8667 17.0285L25.8448 17.0935L25.8229 17.1629L25.8097 17.2323L25.6782 17.9133Z" stroke="white" stroke-width="0.22" stroke-miterlimit="2.61"/>
<path fill-rule="evenodd" clip-rule="evenodd" d="M33.6148 16.1222L33.5709 16.1005L33.5271 16.0831L33.4788 16.0571L33.4306 16.0354L33.3824 16.0137L33.3253 15.9964L33.2683 15.9747L33.207 15.9573L33.1456 15.94L33.0798 15.927L33.014 15.914L32.9439 15.9053L32.8649 15.8966L32.7904 15.8923H32.7071H32.6281H32.5448L32.4571 15.8966L32.365 15.9053L32.273 15.9226L32.1809 15.9487L32.0888 15.9877L31.9923 16.0311L31.9002 16.0918L31.8126 16.1655L31.7249 16.2479L31.6415 16.3564L31.5626 16.4778L31.4881 16.6209L31.4179 16.7858L31.3521 16.9723L31.3039 17.1805L31.282 17.2976L31.2688 17.4147L31.2601 17.5318L31.2644 17.6402L31.2732 17.753L31.2995 17.8571L31.3258 17.9568L31.3653 18.0566L31.4135 18.1477L31.4749 18.2301L31.5451 18.3081L31.624 18.3775L31.7161 18.4339L31.8169 18.486L31.9309 18.5293L32.0581 18.5554L32.0976 18.5684L32.1502 18.5771L32.2116 18.5814L32.2774 18.5901L32.3475 18.5987H32.4264H32.5098L32.5931 18.5901L32.6808 18.5814L32.7641 18.564L32.8474 18.5424L32.9307 18.5163L33.014 18.4773L33.0929 18.4339L33.1631 18.3819L33.2289 18.3255L33.0798 19.2016L33.0579 19.219L33.0403 19.2407L33.014 19.2623L32.9833 19.2797L32.9439 19.3057L32.9 19.3317L32.8474 19.3534L32.786 19.3751L32.7071 19.3968L32.6238 19.4142L32.5229 19.4272L32.4045 19.4402L32.2774 19.4445L32.1283 19.4489L31.9573 19.4445L31.7687 19.4358L31.6152 19.4185L31.4618 19.3881L31.3127 19.3361L31.1592 19.271L31.0101 19.193L30.8698 19.0932L30.7382 18.9804L30.6155 18.846L30.5058 18.6985L30.4138 18.5337L30.3304 18.3515L30.2734 18.1477L30.234 17.9265L30.2208 17.6966L30.2252 17.4364L30.2647 17.1631L30.291 17.0286L30.3173 16.8985L30.3524 16.7684L30.3875 16.647L30.4225 16.5342L30.4664 16.4171L30.5102 16.3087L30.5541 16.2089L30.6067 16.1048L30.6549 16.0094L30.7119 15.9183L30.7733 15.8316L30.8303 15.7491L30.9005 15.6711L30.9663 15.5973L31.0364 15.5279L31.111 15.4629L31.1899 15.4022L31.2688 15.3458L31.3521 15.2894L31.4398 15.2417L31.5319 15.1983L31.624 15.1593L31.7205 15.1246L31.8257 15.0899L31.9266 15.0639L32.0318 15.0422L32.1458 15.0205L32.2598 15.0031L32.3782 14.9901L32.501 14.9858L32.6281 14.9814L32.7334 14.9858L32.8342 14.9901L32.9351 15.0031L33.0359 15.0161L33.128 15.0292L33.2201 15.0465L33.3034 15.0639L33.3867 15.0855L33.4613 15.1029L33.5271 15.1246L33.5928 15.1419L33.6454 15.1636L33.6893 15.181L33.7288 15.194L33.7595 15.207L33.7814 15.2113L33.6148 16.1222Z" fill="white"/>
<path d="M33.6148 16.1222L33.5709 16.1005L33.5271 16.0831L33.4788 16.0571L33.4306 16.0354L33.3824 16.0137L33.3253 15.9964L33.2683 15.9747L33.207 15.9573L33.1456 15.94L33.0798 15.927L33.014 15.914L32.9439 15.9053L32.8649 15.8966L32.7904 15.8923H32.7071H32.6281H32.5448L32.4571 15.8966L32.365 15.9053L32.273 15.9226L32.1809 15.9487L32.0888 15.9877L31.9923 16.0311L31.9002 16.0918L31.8126 16.1655L31.7249 16.2479L31.6415 16.3564L31.5626 16.4778L31.4881 16.6209L31.4179 16.7858L31.3521 16.9723L31.3039 17.1805L31.282 17.2976L31.2688 17.4147L31.2601 17.5318L31.2644 17.6402L31.2732 17.753L31.2995 17.8571L31.3258 17.9568L31.3653 18.0566L31.4135 18.1477L31.4749 18.2301L31.5451 18.3081L31.624 18.3775L31.7161 18.4339L31.8169 18.486L31.9309 18.5293L32.0581 18.5554L32.0976 18.5684L32.1502 18.5771L32.2116 18.5814L32.2774 18.5901L32.3475 18.5987H32.4264H32.5098L32.5931 18.5901L32.6808 18.5814L32.7641 18.564L32.8474 18.5424L32.9307 18.5163L33.014 18.4773L33.0929 18.4339L33.1631 18.3819L33.2289 18.3255L33.0798 19.2016L33.0579 19.219L33.0403 19.2407L33.014 19.2623L32.9833 19.2797L32.9439 19.3057L32.9 19.3317L32.8474 19.3534L32.786 19.3751L32.7071 19.3968L32.6238 19.4142L32.5229 19.4272L32.4045 19.4402L32.2774 19.4445L32.1283 19.4489L31.9573 19.4445L31.7687 19.4358L31.6152 19.4185L31.4618 19.3881L31.3127 19.3361L31.1592 19.271L31.0101 19.193L30.8698 19.0932L30.7382 18.9804L30.6155 18.846L30.5058 18.6985L30.4138 18.5337L30.3304 18.3515L30.2734 18.1477L30.234 17.9265L30.2208 17.6966L30.2252 17.4364L30.2647 17.1631L30.291 17.0286L30.3173 16.8985L30.3524 16.7684L30.3875 16.647L30.4225 16.5342L30.4664 16.4171L30.5102 16.3087L30.5541 16.2089L30.6067 16.1048L30.6549 16.0094L30.7119 15.9183L30.7733 15.8316L30.8303 15.7491L30.9005 15.6711L30.9663 15.5973L31.0364 15.5279L31.111 15.4629L31.1899 15.4022L31.2688 15.3458L31.3521 15.2894L31.4398 15.2417L31.5319 15.1983L31.624 15.1593L31.7205 15.1246L31.8257 15.0899L31.9266 15.0639L32.0318 15.0422L32.1458 15.0205L32.2598 15.0031L32.3782 14.9901L32.501 14.9858L32.6281 14.9814L32.7334 14.9858L32.8342 14.9901L32.9351 15.0031L33.0359 15.0161L33.128 15.0292L33.2201 15.0465L33.3034 15.0639L33.3867 15.0855L33.4613 15.1029L33.5271 15.1246L33.5928 15.1419L33.6454 15.1636L33.6893 15.181L33.7288 15.194L33.7595 15.207L33.7814 15.2113L33.6148 16.1222Z" stroke="white" stroke-width="0.22" stroke-miterlimit="2.61"/>
<path fill-rule="evenodd" clip-rule="evenodd" d="M41.8098 19.4524H40.8889L40.9547 19.0881V19.0534L40.9021 19.1185L40.8407 19.1792L40.7881 19.2312L40.7267 19.2789L40.6653 19.3223L40.6083 19.357L40.5469 19.3874L40.4855 19.4177L40.4198 19.4394L40.3584 19.4568L40.2926 19.4698L40.2268 19.4828L40.161 19.4915L40.0997 19.4958L40.0339 19.5001H39.9637L39.7927 19.4871L39.6305 19.4524L39.4858 19.396L39.3542 19.3223L39.2314 19.2269L39.1262 19.1141L39.0341 18.9927L38.9508 18.8539L38.885 18.7064L38.8324 18.5503L38.7973 18.3898L38.771 18.2206L38.7579 18.0515L38.7623 17.8823L38.7798 17.7132L38.8105 17.544L38.8587 17.3532L38.9201 17.1667L38.9903 16.9975L39.0736 16.8414L39.1613 16.6939L39.2578 16.5595L39.363 16.4424L39.4726 16.3339L39.5866 16.2385L39.7094 16.1561L39.8366 16.0824L39.9637 16.026L40.0997 15.9826L40.2312 15.9522L40.3628 15.9306L40.4987 15.9262L40.5952 15.9306L40.6916 15.9392L40.7793 15.9566L40.8582 15.9783L40.9328 16.0043L40.9986 16.0347L41.0687 16.0694L41.1257 16.1084L41.1784 16.1474L41.231 16.1908L41.2748 16.2298L41.3143 16.2732L41.345 16.3166L41.3757 16.3599L41.402 16.399L41.4239 16.438L41.6563 15.1455H42.5596L41.8098 19.4524Z" fill="white"/>
<path d="M41.8098 19.4524H40.8889L40.9547 19.0881V19.0534L40.9021 19.1185L40.8407 19.1792L40.7881 19.2312L40.7267 19.2789L40.6653 19.3223L40.6083 19.357L40.5469 19.3874L40.4855 19.4177L40.4198 19.4394L40.3584 19.4568L40.2926 19.4698L40.2268 19.4828L40.161 19.4915L40.0997 19.4958L40.0339 19.5001H39.9637L39.7927 19.4871L39.6305 19.4524L39.4858 19.3961L39.3542 19.3223L39.2314 19.2269L39.1262 19.1141L39.0341 18.9927L38.9508 18.8539L38.885 18.7064L38.8324 18.5503L38.7973 18.3898L38.771 18.2206L38.7579 18.0515L38.7623 17.8823L38.7798 17.7132L38.8105 17.544L38.8587 17.3532L38.9201 17.1667L38.9903 16.9975L39.0736 16.8414L39.1613 16.6939L39.2578 16.5595L39.363 16.4424L39.4726 16.3339L39.5866 16.2385L39.7094 16.1561L39.8366 16.0824L39.9637 16.026L40.0997 15.9826L40.2312 15.9522L40.3628 15.9306L40.4987 15.9262L40.5952 15.9306L40.6916 15.9392L40.7793 15.9566L40.8582 15.9783L40.9328 16.0043L40.9986 16.0347L41.0687 16.0694L41.1257 16.1084L41.1784 16.1474L41.231 16.1908L41.2748 16.2298L41.3143 16.2732L41.345 16.3166L41.3757 16.3599L41.402 16.399L41.4239 16.438L41.6563 15.1455H42.5596L41.8098 19.4524Z" stroke="white" stroke-width="0.22" stroke-miterlimit="2.61"/>
<path fill-rule="evenodd" clip-rule="evenodd" d="M40.3019 18.6551L40.394 18.6508L40.4817 18.6291L40.5606 18.6074L40.6395 18.5684L40.7053 18.5337L40.7755 18.4816L40.8369 18.4253L40.8939 18.3645L40.9421 18.2995L40.9903 18.2257L41.0342 18.152L41.0693 18.0739L41.1043 17.9915L41.1306 17.9048L41.1526 17.818L41.1701 17.727L41.1876 17.6359L41.1964 17.5404V17.4494L41.192 17.3583L41.1833 17.2715L41.1701 17.1891L41.1482 17.1111L41.1219 17.0373L41.0868 16.9723L41.0473 16.9072L41.0035 16.8552L40.9552 16.8074L40.8982 16.7684L40.8369 16.7424L40.7755 16.725L40.7053 16.7207L40.6132 16.725L40.5299 16.7381L40.4554 16.7684L40.3764 16.7988L40.3107 16.8421L40.2449 16.8942L40.1879 16.9506L40.1309 17.0156L40.0826 17.085L40.0344 17.1631L39.9906 17.2412L39.9555 17.3279L39.9204 17.4147L39.8941 17.5058L39.8678 17.6012L39.8502 17.6966L39.8327 17.8397L39.8371 17.9959L39.8634 18.1607L39.9072 18.3125L39.973 18.4469L40.0607 18.5554L40.1703 18.6291L40.3019 18.6551Z" fill="#FBB231"/>
<path fill-rule="evenodd" clip-rule="evenodd" d="M19.8632 18.7194L19.7272 19.4524H18.8897L18.9116 19.3179L18.9292 19.1965L18.9423 19.1011L18.9555 19.0534L18.9072 19.1054L18.8546 19.1575L18.7932 19.2095L18.7231 19.2529L18.6442 19.3006L18.5608 19.3396L18.4731 19.3787L18.3811 19.4134L18.2846 19.4437L18.1881 19.4654L18.0917 19.4828L17.9952 19.4958L17.8943 19.5044L17.8022 19.5088L17.7058 19.4958L17.6181 19.4828L17.4997 19.4567L17.3944 19.422L17.3024 19.3787L17.2191 19.331L17.1445 19.2789L17.0787 19.2182L17.0261 19.1531L16.9779 19.0881L16.9384 19.0187L16.9033 18.9493L16.877 18.8755L16.8595 18.8018L16.8463 18.7281L16.8332 18.65L16.8288 18.5806V18.5069L16.8376 18.3768L16.8595 18.2553L16.8902 18.1425L16.934 18.0298L16.9867 17.9257L17.048 17.8303L17.1182 17.7392L17.1971 17.6524L17.2804 17.5787L17.3725 17.5093L17.469 17.4486L17.5698 17.3922L17.6751 17.3488L17.7847 17.3098L17.8987 17.2838L18.0171 17.2621H18.0215L18.039 17.2577H18.0653L18.1004 17.2534L18.1399 17.2447H18.1881L18.2364 17.236L18.2934 17.2317L18.3504 17.223L18.4074 17.2187L18.4688 17.2144L18.517 17.2057L18.574 17.2013H18.6222L18.6705 17.197H18.7055H18.7845L18.8634 17.2013H18.9336H19.0081L19.0695 17.2057L19.1133 17.21L19.1484 17.2144H19.1572L19.166 17.1883L19.1835 17.132L19.201 17.0626L19.2098 16.9975L19.1923 16.9281L19.166 16.8587L19.1265 16.8023L19.0695 16.7503L19.0081 16.7112L18.9379 16.6809L18.859 16.6592L18.7713 16.6549L18.6792 16.6505L18.5784 16.6462H18.4775L18.3679 16.6505L18.2583 16.6592L18.153 16.6679L18.0478 16.6765L17.9426 16.6895L17.8417 16.7026L17.7452 16.7199L17.6619 16.7373L17.5786 16.7503L17.5085 16.772L17.4471 16.7936L17.4032 16.8153L17.3638 16.8327L17.6005 16.039L17.6751 16.0129L17.7452 15.9869L17.8286 15.9609L17.9075 15.9435L17.9864 15.9305L18.0741 15.9175L18.1574 15.9045L18.2495 15.8958L18.3416 15.8915L18.4381 15.8872L18.5389 15.8828H18.6442H18.7494H18.859L18.973 15.8872L19.0914 15.8915L19.1835 15.8958L19.2844 15.9132L19.3896 15.9349L19.4948 15.9652L19.5957 16.0043L19.6965 16.052L19.7974 16.1084L19.8895 16.1691L19.9728 16.2428L20.0473 16.3209L20.1131 16.4076L20.1613 16.5074L20.1964 16.6158L20.214 16.7242V16.85L20.1964 16.9845L19.8632 18.7194Z" fill="white"/>
<path d="M19.8632 18.7194L19.7272 19.4524H18.8897L18.9116 19.3179L18.9292 19.1965L18.9423 19.1011L18.9555 19.0534L18.9072 19.1054L18.8546 19.1575L18.7932 19.2095L18.7231 19.2529L18.6442 19.3006L18.5608 19.3396L18.4731 19.3787L18.3811 19.4134L18.2846 19.4437L18.1881 19.4654L18.0917 19.4828L17.9952 19.4958L17.8943 19.5044L17.8022 19.5088L17.7058 19.4958L17.6181 19.4828L17.4997 19.4567L17.3944 19.422L17.3024 19.3787L17.2191 19.331L17.1445 19.2789L17.0787 19.2182L17.0261 19.1531L16.9779 19.0881L16.9384 19.0187L16.9033 18.9493L16.877 18.8755L16.8595 18.8018L16.8463 18.7281L16.8332 18.65L16.8288 18.5806V18.5069L16.8376 18.3768L16.8595 18.2553L16.8902 18.1425L16.934 18.0298L16.9867 17.9257L17.048 17.8303L17.1182 17.7392L17.1971 17.6524L17.2804 17.5787L17.3725 17.5093L17.469 17.4486L17.5698 17.3922L17.6751 17.3488L17.7847 17.3098L17.8987 17.2838L18.0171 17.2621H18.0215L18.039 17.2577H18.0653L18.1004 17.2534L18.1399 17.2447H18.1881L18.2364 17.236L18.2934 17.2317L18.3504 17.223L18.4074 17.2187L18.4688 17.2144L18.517 17.2057L18.574 17.2013H18.6222L18.6705 17.197H18.7055H18.7845L18.8634 17.2013H18.9336H19.0081L19.0695 17.2057L19.1133 17.21L19.1484 17.2144H19.1572L19.166 17.1883L19.1835 17.132L19.201 17.0626L19.2098 16.9975L19.1923 16.9281L19.166 16.8587L19.1265 16.8023L19.0695 16.7503L19.0081 16.7112L18.9379 16.6809L18.859 16.6592L18.7713 16.6549L18.6792 16.6505L18.5784 16.6462H18.4775L18.3679 16.6505L18.2583 16.6592L18.153 16.6679L18.0478 16.6765L17.9426 16.6895L17.8417 16.7026L17.7452 16.7199L17.6619 16.7373L17.5786 16.7503L17.5085 16.772L17.4471 16.7936L17.4032 16.8153L17.3638 16.8327L17.6005 16.039L17.6751 16.0129L17.7452 15.9869L17.8286 15.9609L17.9075 15.9435L17.9864 15.9305L18.0741 15.9175L18.1574 15.9045L18.2495 15.8958L18.3416 15.8915L18.4381 15.8872L18.5389 15.8828H18.6442H18.7494H18.859L18.973 15.8872L19.0914 15.8915L19.1835 15.8958L19.2844 15.9132L19.3896 15.9349L19.4948 15.9652L19.5957 16.0043L19.6965 16.052L19.7974 16.1084L19.8895 16.1691L19.9728 16.2428L20.0473 16.3209L20.1131 16.4076L20.1613 16.5074L20.1964 16.6158L20.214 16.7242V16.85L20.1964 16.9845L19.8632 18.7194Z" stroke="white" stroke-width="0.22" stroke-miterlimit="2.61"/>
<path fill-rule="evenodd" clip-rule="evenodd" d="M19.0611 17.8611L19.0567 17.8481L19.0436 17.8307L19.0216 17.8177L18.9909 17.8134L18.9515 17.8047H18.9076H18.8594H18.8068H18.7542L18.7015 17.8134L18.6445 17.8177L18.5919 17.8264L18.5437 17.835L18.4954 17.8437L18.456 17.8524L18.4209 17.8611L18.3946 17.8697L18.3683 17.8784L18.3332 17.8914L18.2981 17.9088L18.2543 17.9261L18.2104 17.9522L18.1622 17.9738L18.1183 17.9999L18.0745 18.0346L18.0306 18.0649L17.9912 18.104L17.9561 18.1473L17.921 18.1864L17.8947 18.2341L17.8772 18.2861L17.8684 18.3382L17.864 18.4509L17.8816 18.542L17.9122 18.6071L17.9561 18.6548L18.0087 18.6895L18.0657 18.7068L18.1183 18.7199H18.171H18.2674L18.3595 18.7068L18.4472 18.6938L18.5218 18.6765L18.5875 18.6505L18.6533 18.6244L18.7103 18.5941L18.7585 18.555L18.8024 18.5247L18.8419 18.4856L18.8769 18.4466L18.9032 18.4076L18.9252 18.3685L18.9471 18.3295L18.9602 18.2948L18.9734 18.2558L18.9997 18.1603L19.0216 18.0519L19.0436 17.9478L19.0611 17.8611Z" fill="#EC1C2E"/>
<path fill-rule="evenodd" clip-rule="evenodd" d="M12.8567 19.4532H11.9534L12.7076 15.1289H14.2818L14.4309 17.6966L15.5228 15.1289H17.1671L16.391 19.4532H15.4877L16.0621 16.2219H16.0226L14.6677 19.4532H13.646L13.6416 19.3187L13.6153 18.9587L13.589 18.4469L13.5539 17.8614L13.5188 17.2715L13.4925 16.7554L13.4662 16.3824L13.4618 16.2219H13.4531H13.4311H13.4092L12.8567 19.4532Z" fill="white"/>
<path d="M12.8567 19.4532H11.9534L12.7076 15.1289H14.2818L14.4309 17.6966L15.5228 15.1289H17.1671L16.391 19.4532H15.4877L16.0621 16.2219H16.0226L14.6677 19.4532H13.646L13.6416 19.3187L13.6153 18.9587L13.589 18.4469L13.5539 17.8614L13.5188 17.2715L13.4925 16.7554L13.4662 16.3824L13.4618 16.2219H13.4531H13.4311H13.4092L12.8567 19.4532Z" stroke="white" stroke-width="0.22" stroke-miterlimit="2.61"/>
<path fill-rule="evenodd" clip-rule="evenodd" d="M36.3818 18.7194L36.2458 19.4524H35.4083L35.4171 19.3179V19.2008V19.1098L35.4258 19.0707L35.382 19.1184L35.3338 19.1705L35.2724 19.2138L35.2066 19.2616L35.1364 19.3049L35.0575 19.344L34.9742 19.383L34.8909 19.4177L34.7988 19.4437L34.7067 19.4697L34.6146 19.4828L34.5182 19.4958L34.4217 19.5044L34.3296 19.5088L34.2419 19.4958L34.1498 19.4828L34.0314 19.4567L33.9262 19.422L33.8297 19.3787L33.742 19.331L33.6719 19.2789L33.6061 19.2182L33.5535 19.1531L33.5096 19.0881L33.4702 19.0187L33.4395 18.9493L33.4132 18.8755L33.3956 18.8018L33.3825 18.7281L33.3737 18.65L33.3649 18.5806V18.5069L33.3737 18.3768L33.3912 18.2553L33.4219 18.1425L33.4658 18.0298L33.514 17.9257L33.5798 17.8303L33.6456 17.7392L33.7245 17.6524L33.8122 17.5787L33.8999 17.5093L33.9964 17.4486L34.1016 17.3922L34.2024 17.3488L34.3121 17.3098L34.4217 17.2838L34.5357 17.2621H34.5445L34.5576 17.2577H34.5839L34.6146 17.2534L34.6585 17.2447H34.7067L34.7549 17.236L34.8076 17.2317L34.8646 17.223L34.926 17.2187L34.983 17.2144L35.04 17.2057L35.0926 17.2013H35.1408L35.1847 17.197H35.2241H35.3031L35.382 17.2013H35.4565H35.5311L35.5969 17.2057L35.6495 17.21L35.6758 17.2144H35.6933L35.6977 17.1883L35.7109 17.132L35.7196 17.0626L35.724 16.9975L35.7109 16.9281L35.6845 16.8587L35.6407 16.8023L35.5925 16.7503L35.5311 16.7112L35.4609 16.6809L35.3864 16.6592L35.3074 16.6549L35.2154 16.6505L35.1145 16.6462H35.0137L34.904 16.6505L34.7944 16.6592L34.6892 16.6679L34.5839 16.6765L34.4787 16.6895L34.3778 16.7026L34.2858 16.7199L34.1981 16.7373L34.1191 16.7503L34.0446 16.772L33.9832 16.7936L33.935 16.8153L33.8999 16.8327L34.1323 16.039L34.2068 16.0129L34.2858 15.9869L34.3603 15.9609L34.4392 15.9435L34.5225 15.9305L34.6059 15.9175L34.6936 15.9045L34.7813 15.8958L34.8777 15.8915L34.9742 15.8872L35.0707 15.8828H35.1715H35.2768H35.382L35.496 15.8872L35.61 15.8915L35.7021 15.8958L35.8029 15.9132L35.9038 15.9349L36.0134 15.9652L36.1143 16.0043L36.2151 16.052L36.316 16.1084L36.4081 16.1691L36.4958 16.2428L36.5703 16.3209L36.6361 16.4076L36.6887 16.5074L36.7238 16.6158L36.7457 16.7242V16.85L36.7325 16.9845L36.3818 18.7194Z" fill="white"/>
<path fill-rule="evenodd" clip-rule="evenodd" d="M36.246 19.4744L36.2636 19.4571L36.3995 18.7241L36.3601 18.7197L36.2241 19.4484L36.246 19.431V19.4744L36.2592 19.4701L36.2636 19.4571L36.246 19.4744Z" fill="white"/>
<path fill-rule="evenodd" clip-rule="evenodd" d="M35.3867 19.4524L35.4086 19.474H36.2462V19.4307H35.4086L35.4306 19.4524H35.3867V19.474H35.4086L35.3867 19.4524Z" fill="white"/>
<path fill-rule="evenodd" clip-rule="evenodd" d="M35.4437 19.0836L35.413 19.0576L35.3999 19.1097L35.3955 19.2007V19.3179L35.3867 19.4523H35.4306L35.435 19.3179L35.4437 19.2007L35.4393 19.1097V19.0836L35.4086 19.0576L35.4437 19.0836Z" fill="white"/>
<path fill-rule="evenodd" clip-rule="evenodd" d="M34.1459 19.5044L34.2423 19.5174L34.33 19.526H34.4221L34.5186 19.5174L34.6151 19.5044L34.7115 19.487L34.8036 19.461L34.8957 19.435L34.979 19.4003L35.0667 19.3656L35.1456 19.3222L35.2158 19.2788L35.2859 19.2311L35.3473 19.1834L35.4 19.1314L35.4438 19.0836L35.4087 19.0576L35.3649 19.1053L35.321 19.153L35.2596 19.2007L35.1982 19.2441L35.1281 19.2832L35.0448 19.3222L34.9658 19.3656L34.8825 19.3959L34.7948 19.4219L34.7028 19.448L34.6107 19.4653L34.5186 19.4783L34.4221 19.4827L34.33 19.487L34.2423 19.4783L34.1546 19.4653L34.1459 19.5044Z" fill="white"/>
<path fill-rule="evenodd" clip-rule="evenodd" d="M33.3434 18.5068V18.5806L33.3522 18.65L33.361 18.7324L33.3741 18.8061L33.3917 18.8798L33.418 18.9536L33.4487 19.0317L33.4925 19.101L33.5364 19.1704L33.5934 19.2312L33.6592 19.2919L33.7337 19.3483L33.8214 19.4003L33.9179 19.4437L34.0275 19.4741L34.1459 19.5044L34.1547 19.4654L34.0363 19.435L33.931 19.4003L33.8389 19.3613L33.7556 19.3136L33.6855 19.2615L33.6241 19.2051L33.5715 19.1401L33.5232 19.0794L33.4881 19.01L33.4575 18.9406L33.4311 18.8712L33.4136 18.8018L33.4004 18.7237L33.3917 18.65L33.3873 18.5806V18.5068H33.3434Z" fill="white"/>
<path fill-rule="evenodd" clip-rule="evenodd" d="M34.5361 17.2451L34.4221 17.2625L34.3081 17.2928L34.1985 17.3275L34.0933 17.3752L33.988 17.4273L33.8872 17.4923L33.7995 17.5617L33.7118 17.6398L33.6328 17.7222L33.5627 17.8176L33.4969 17.9131L33.4443 18.0215L33.4004 18.1343L33.3741 18.2557L33.3522 18.3771L33.3434 18.5073H33.3873L33.3917 18.3771L33.4136 18.26L33.4443 18.1473L33.4838 18.0388L33.5364 17.9347L33.5934 17.8437L33.6635 17.7482L33.7381 17.6658L33.8258 17.5964L33.9135 17.527L34.0056 17.4663L34.1108 17.4143L34.2117 17.3666L34.3213 17.3319L34.4265 17.3015L34.5361 17.2842V17.2451Z" fill="white"/>
<path fill-rule="evenodd" clip-rule="evenodd" d="M35.2241 17.1758H35.1847L35.1408 17.1801L35.0926 17.1845L35.04 17.1888L34.983 17.1931L34.926 17.1975L34.8646 17.2018L34.8076 17.2105L34.755 17.2192L34.7067 17.2235L34.6585 17.2278L34.6146 17.2322L34.5839 17.2365L34.5576 17.2408L34.5445 17.2452H34.5357V17.2842H34.5445L34.562 17.2799L34.5839 17.2755L34.6146 17.2712L34.6585 17.2669L34.7067 17.2625L34.755 17.2582L34.8076 17.2495L34.8646 17.2452L34.926 17.2365L34.983 17.2322L35.04 17.2278L35.0926 17.2235L35.1408 17.2192H35.1847H35.2241V17.1758Z" fill="white"/>
<path fill-rule="evenodd" clip-rule="evenodd" d="M35.6713 17.2105L35.6932 17.1931H35.6756L35.6493 17.1888H35.5967L35.5309 17.1801H35.4564H35.3819L35.3029 17.1758H35.224V17.2192H35.3029H35.3819L35.4564 17.2278H35.5309H35.5967L35.6493 17.2322H35.6756H35.6932L35.7107 17.2192L35.6932 17.2322L35.7107 17.2365V17.2192L35.6713 17.2105Z" fill="white"/>
<path fill-rule="evenodd" clip-rule="evenodd" d="M35.7067 16.998H35.7023L35.6979 17.0631L35.6891 17.1282L35.676 17.1889L35.6716 17.2106L35.711 17.2192L35.7198 17.1932L35.7286 17.1325L35.7373 17.0631L35.7461 16.998H35.7067Z" fill="white"/>
<path fill-rule="evenodd" clip-rule="evenodd" d="M35.3076 16.6723V16.6766L35.3865 16.681L35.4567 16.6983L35.5225 16.7287L35.5795 16.7677L35.6233 16.8154L35.6628 16.8718L35.6935 16.9282L35.7066 16.9976H35.7461L35.733 16.9238L35.7066 16.8501L35.6584 16.7894L35.6058 16.7373L35.5444 16.6896L35.4699 16.6593L35.3909 16.6419L35.3076 16.6289V16.6332V16.6723Z" fill="white"/>
<path fill-rule="evenodd" clip-rule="evenodd" d="M33.8825 16.8332L33.9132 16.8505L33.9483 16.8332L33.9921 16.8115L34.0491 16.7942L34.1193 16.7725L34.2026 16.7551L34.2859 16.7378L34.3824 16.7248L34.4789 16.7117L34.5841 16.6944L34.6893 16.6857L34.7946 16.677L34.9042 16.6727H35.0138H35.1147H35.2155H35.3076V16.6337L35.2155 16.6293L35.1147 16.625H35.0138L34.9042 16.6293L34.7946 16.638L34.6893 16.6467L34.5841 16.6597L34.4789 16.6727L34.378 16.6814L34.2815 16.6987L34.1938 16.7161L34.1149 16.7334L34.0404 16.7508L33.979 16.7725L33.9264 16.7942L33.8869 16.8202L33.922 16.8375L33.8825 16.8332Z" fill="white"/>
<path fill-rule="evenodd" clip-rule="evenodd" d="M34.1281 16.0215L34.1149 16.0388L33.8825 16.8326L33.922 16.8369L34.1544 16.0432L34.1412 16.0605L34.1281 16.0215L34.1193 16.0258L34.1149 16.0388L34.1281 16.0215Z" fill="white"/>
<path fill-rule="evenodd" clip-rule="evenodd" d="M35.6098 15.87L35.4958 15.8657L35.3818 15.8613H35.2766H35.1714H35.0705L34.974 15.8657L34.8776 15.87L34.7811 15.8787L34.6934 15.883L34.6013 15.896L34.518 15.909L34.4347 15.9264L34.3558 15.9437L34.2768 15.9654L34.2023 15.9914L34.1277 16.0218L34.1409 16.0608L34.2154 16.0305L34.29 16.0045L34.3645 15.9828L34.4435 15.9654L34.5268 15.9481L34.6101 15.9351L34.6934 15.9221L34.7811 15.9177L34.8776 15.909L34.974 15.9047H35.0705H35.1714H35.2766H35.3818L35.4958 15.909H35.6098V15.87Z" fill="white"/>
<path fill-rule="evenodd" clip-rule="evenodd" d="M36.7494 16.9848L36.7669 16.8503V16.7246L36.745 16.6118L36.7055 16.5034L36.6529 16.3993L36.5872 16.3082L36.5038 16.2258L36.4249 16.152L36.3284 16.0913L36.2276 16.0306L36.1223 15.9872L36.0171 15.9439L35.9075 15.9178L35.8023 15.8918L35.7014 15.8788L35.6093 15.8701V15.9092L35.7014 15.9178L35.7979 15.9308L35.8987 15.9569L36.004 15.9872L36.1048 16.0263L36.2057 16.0696L36.3065 16.1217L36.3942 16.1867L36.4775 16.2561L36.5521 16.3342L36.6178 16.421L36.6661 16.5164L36.7012 16.6161L36.7275 16.7246V16.8503L36.7099 16.9805L36.7494 16.9848Z" fill="white"/>
<path fill-rule="evenodd" clip-rule="evenodd" d="M36.3992 18.7241L36.75 16.9848L36.7105 16.9805L36.3597 18.7197L36.3992 18.7241Z" fill="white"/>
<path fill-rule="evenodd" clip-rule="evenodd" d="M35.5752 17.8605L35.5665 17.8432L35.5577 17.8258L35.5314 17.8172L35.5007 17.8041H35.4612L35.4174 17.7998H35.3692L35.3209 17.8041L35.2639 17.8085L35.2113 17.8172L35.1587 17.8215L35.1104 17.8302L35.0578 17.8388L35.0184 17.8475L34.9745 17.8562L34.9394 17.8605L34.9175 17.8649L34.8912 17.8735L34.8561 17.8866L34.821 17.8996L34.7772 17.9169L34.7377 17.9386L34.6895 17.9603L34.6456 17.9906L34.6018 18.021L34.5579 18.0557L34.5229 18.0904L34.4878 18.1338L34.4571 18.1815L34.4352 18.2292L34.4132 18.2812L34.4045 18.3376L34.4001 18.4504L34.4176 18.5415L34.4439 18.6065L34.4834 18.6543L34.5316 18.689L34.5886 18.7063L34.6456 18.7193H34.7026H34.8035L34.8956 18.7063L34.9833 18.689L35.0578 18.6673L35.1324 18.6412L35.1981 18.6109L35.2551 18.5805L35.3078 18.5415L35.356 18.5024L35.3955 18.4591L35.4305 18.42L35.4612 18.3767L35.4832 18.3376L35.5007 18.2986L35.5139 18.2596L35.527 18.2249L35.5402 18.1294L35.5577 18.0384L35.5665 17.9429L35.5752 17.8605Z" fill="#FBB231"/>
<path fill-rule="evenodd" clip-rule="evenodd" d="M42.4331 19.0014L42.4375 18.9234L42.4638 18.8366L42.512 18.7585L42.569 18.6891L42.6392 18.6328L42.7181 18.5937L42.8058 18.5677L42.8979 18.5547L42.99 18.5677L43.0777 18.5937L43.1566 18.6328L43.2268 18.6891L43.2838 18.7585L43.332 18.8366L43.3583 18.9234L43.3627 19.0014H43.2662L43.2619 18.9407L43.2399 18.8713L43.2092 18.8019L43.1654 18.7455L43.1128 18.7022L43.047 18.6675L42.9725 18.6458L42.8979 18.6371L42.8234 18.6458L42.7488 18.6675L42.683 18.7022L42.6304 18.7455L42.5866 18.8019L42.5559 18.8713L42.534 18.9407L42.5296 19.0014H42.4331Z" fill="white"/>
<path fill-rule="evenodd" clip-rule="evenodd" d="M42.7314 19.0013V18.8018H42.9156L42.9551 18.8061L42.9902 18.8148L43.0165 18.8234L43.0428 18.8365L43.0559 18.8581L43.0691 18.8755L43.0779 18.8972L43.0822 18.9232L43.0779 18.9536L43.0691 18.9752L43.0603 18.9926L43.0559 19.0013H42.9156L42.9288 18.9969L42.9507 18.9926L42.9726 18.9883L42.9858 18.9796L42.9989 18.9709L43.0077 18.9622L43.0121 18.9449V18.9232V18.9059L43.0033 18.8928L42.9945 18.8842L42.9858 18.8798L42.9682 18.8755L42.9507 18.8712H42.9332H42.9156H42.8148V19.0013H42.7314Z" fill="white"/>
<path fill-rule="evenodd" clip-rule="evenodd" d="M42.4329 19.002L42.4285 19.0193L42.4373 19.1191L42.4636 19.2058L42.5118 19.2839L42.5688 19.3489L42.639 19.4053L42.7179 19.4487L42.8056 19.4747L42.8977 19.4834L42.9898 19.4747L43.0775 19.4487L43.1564 19.4053L43.2266 19.3489L43.2836 19.2839L43.3318 19.2058L43.3581 19.1191L43.3669 19.0193L43.3625 19.002H43.266V19.0193L43.2617 19.1017L43.2397 19.1711L43.209 19.2362L43.1652 19.2926L43.1126 19.3359L43.0468 19.375L42.9723 19.3966L42.8977 19.401L42.8232 19.3966L42.7486 19.375L42.6828 19.3359L42.6302 19.2926L42.5864 19.2362L42.5557 19.1711L42.5338 19.1017L42.5294 19.0193V19.002H42.4329Z" fill="white"/>
<path fill-rule="evenodd" clip-rule="evenodd" d="M42.7314 19.002V19.2015H42.8148V19.0367H42.8981L42.9989 19.2015H43.0647L42.9638 19.0367H42.9858L43.0121 19.0323L43.0296 19.0236L43.0472 19.0106L43.0559 19.002H42.9156L42.8981 19.0063H42.8148V19.002H42.7314Z" fill="white"/>
<path d="M42.8758 19.3794H42.9723H43.0468L43.1126 19.3404L43.1652 19.297L43.209 19.2406L43.2397 19.1756V19.1062V19.0238V18.9457V18.872L43.209 18.8069L43.1652 18.7505L43.1126 18.7072L43.0468 18.6508H42.9723H42.8977H42.8232H42.7486L42.6829 18.6855L42.6302 18.7288L42.5864 18.7852L42.5557 18.8503V18.924V19.0021V19.0845V19.1539L42.5864 19.219L42.6302 19.2753L42.6829 19.3187L42.7486 19.3577H42.8232H42.8977M42.4285 19.0194V18.924L42.4548 18.8373L42.5031 18.7592L42.5601 18.6898L42.6302 18.6334L42.7092 18.5944L42.7969 18.5684H42.8889H42.981L43.0687 18.5944L43.1477 18.6334L43.2178 18.6898L43.2748 18.7592L43.3231 18.8373L43.3494 18.924V19.0194V19.1149L43.3231 19.2059L43.2748 19.284L43.2178 19.3491L43.1477 19.4055L43.0687 19.4488L42.981 19.4749H42.8889H42.7969L42.7092 19.4488L42.6302 19.4055L42.5601 19.3491L42.5338 19.284L42.4855 19.2059L42.4592 19.1149V19.0194H42.4285ZM42.8451 19.2016H42.7618V18.8026H42.9723H43.0073H43.0336H43.06V18.8286V18.8546V18.8806H42.9723L43.0731 19.0455H43.0073L42.9065 18.8806H42.8232V19.0455L42.8451 19.2016ZM42.9065 18.8503H42.9372H42.9723H42.7925V18.9847H42.8758L42.9065 18.8503Z" stroke="white" stroke-width="0.22" stroke-miterlimit="2.61"/>
<path fill-rule="evenodd" clip-rule="evenodd" d="M36.6322 19.4525H37.5706L37.9038 17.5788L37.917 17.5051L37.9389 17.4357L37.9564 17.3619L37.9871 17.2882L38.0178 17.2188L38.0573 17.1451L38.1012 17.08L38.1538 17.0193L38.2152 16.9629L38.2809 16.9109L38.3599 16.8588L38.4432 16.8198L38.5396 16.7894L38.6493 16.7634L38.7633 16.7417L38.8948 16.7374H38.9431H38.965H38.9781L39.1272 15.8916L39.0351 15.8959L38.9431 15.9046L38.8597 15.922L38.7808 15.9436L38.7063 15.974L38.6361 16.0044L38.5703 16.0391L38.5089 16.0824L38.4476 16.1258L38.3906 16.1735L38.3379 16.2256L38.2853 16.2776L38.2327 16.334L38.1845 16.3947L38.1362 16.4554L38.088 16.5205L38.1888 15.9263H37.2549L36.6322 19.4525Z" fill="white"/>
<path d="M36.6322 19.4525H37.5706L37.9038 17.5788L37.917 17.5051L37.9389 17.4357L37.9564 17.3619L37.9871 17.2882L38.0178 17.2188L38.0573 17.1451L38.1012 17.08L38.1538 17.0193L38.2152 16.9629L38.2809 16.9109L38.3599 16.8588L38.4432 16.8198L38.5396 16.7894L38.6493 16.7634L38.7633 16.7417L38.8948 16.7374H38.9431H38.965H38.9781L39.1272 15.8916L39.0351 15.8959L38.9431 15.9046L38.8597 15.922L38.7808 15.9436L38.7063 15.974L38.6361 16.0044L38.5703 16.0391L38.5089 16.0824L38.4476 16.1258L38.3906 16.1735L38.3379 16.2256L38.2853 16.2776L38.2327 16.334L38.1845 16.3947L38.1362 16.4554L38.088 16.5205L38.1888 15.9263H37.2549L36.6322 19.4525Z" stroke="white" stroke-width="0.22" stroke-miterlimit="2.61"/>
<path fill-rule="evenodd" clip-rule="evenodd" d="M27.8182 19.4525H28.7566H28.7698L29.0899 17.5788L29.103 17.5051L29.1206 17.4357L29.1381 17.3663L29.16 17.3012L29.1863 17.2362L29.2214 17.1754L29.2609 17.1147L29.3091 17.0583L29.3617 17.0106L29.4187 16.9586L29.4933 16.9195L29.5722 16.8848L29.6687 16.8545L29.7695 16.8285L29.8835 16.8111L30.0107 16.8024H30.0238L30.037 16.8068H30.0545H30.0721L30.0852 16.8111L30.0984 16.8154L30.1115 16.8198L30.1159 16.8068L30.1247 16.7677L30.1379 16.707L30.1554 16.6333L30.1817 16.5465L30.2036 16.4554L30.2343 16.3644L30.265 16.2733L30.2913 16.2082L30.322 16.1475L30.3571 16.0824L30.3878 16.0261L30.4185 15.9783L30.4404 15.9393L30.458 15.9176L30.4667 15.9046H30.4623H30.4492L30.4316 15.9003L30.4097 15.8959H30.3878L30.3615 15.8916H30.3352H30.3133L30.208 15.8959L30.1159 15.9046L30.0282 15.922L29.9493 15.9436L29.8748 15.9697L29.8046 16.0044L29.7388 16.0347L29.6818 16.0738L29.6248 16.1171L29.5722 16.1649L29.5196 16.2169L29.4713 16.2733L29.4187 16.3297L29.3749 16.3904L29.3266 16.4554L29.274 16.5205L29.3924 15.9263H28.4409L27.8182 19.4525Z" fill="white"/>
<path d="M27.8182 19.4525H28.7566H28.7698L29.0899 17.5788L29.103 17.5051L29.1206 17.4357L29.1381 17.3663L29.16 17.3012L29.1863 17.2362L29.2214 17.1754L29.2609 17.1147L29.3091 17.0583L29.3617 17.0106L29.4187 16.9586L29.4933 16.9195L29.5722 16.8848L29.6687 16.8545L29.7695 16.8285L29.8835 16.8111L30.0107 16.8024H30.0238L30.037 16.8068H30.0545H30.0721L30.0852 16.8111L30.0984 16.8154L30.1115 16.8198L30.1159 16.8068L30.1247 16.7677L30.1379 16.707L30.1554 16.6333L30.1817 16.5465L30.2036 16.4554L30.2343 16.3644L30.265 16.2733L30.2913 16.2082L30.322 16.1475L30.3571 16.0824L30.3878 16.0261L30.4185 15.9783L30.4404 15.9393L30.458 15.9176L30.4667 15.9046H30.4623H30.4492L30.4316 15.9003L30.4097 15.8959H30.3878L30.3615 15.8916H30.3352H30.3133L30.208 15.8959L30.1159 15.9046L30.0282 15.922L29.9493 15.9436L29.8748 15.9697L29.8046 16.0044L29.7388 16.0347L29.6818 16.0738L29.6248 16.1171L29.5722 16.1649L29.5196 16.2169L29.4713 16.2733L29.4187 16.3297L29.3749 16.3904L29.3266 16.4554L29.274 16.5205L29.3924 15.9263H28.4409L27.8182 19.4525Z" stroke="white" stroke-width="0.22" stroke-miterlimit="2.61"/>
<path fill-rule="evenodd" clip-rule="evenodd" d="M42.4376 22.9141V22.9011L42.4639 22.8187L42.5122 22.7406L42.5692 22.6756L42.6393 22.6235L42.7183 22.5845L42.806 22.5628L42.898 22.5498L42.9901 22.5628L43.0778 22.5845L43.1567 22.6235L43.2269 22.6756L43.2839 22.7406L43.3321 22.8187L43.3585 22.9011V22.9141H43.262L43.2401 22.8491L43.2094 22.784L43.1655 22.7276L43.1129 22.6843L43.0471 22.6452L42.9726 22.6235L42.898 22.6149L42.8235 22.6235L42.749 22.6452L42.6832 22.6843L42.6306 22.7276L42.5867 22.784L42.556 22.8491L42.5341 22.9141H42.4376Z" fill="#FBB231"/>
<path fill-rule="evenodd" clip-rule="evenodd" d="M42.7314 22.9136V22.8008H42.9156H42.9551L42.9902 22.8051L43.0165 22.8138L43.0428 22.8268L43.0559 22.8442L43.0691 22.8615L43.0779 22.8875L43.0822 22.9136H43.0121V22.9005V22.8832L43.0033 22.8702L42.9945 22.8615L42.9858 22.8572L42.9682 22.8528L42.9507 22.8485H42.9332H42.9156H42.8148V22.9136H42.7314Z" fill="#FBB231"/>
<path fill-rule="evenodd" clip-rule="evenodd" d="M42.4285 22.9878L42.4373 22.9141H42.5338V22.9184L42.5294 22.9878H42.4285Z" fill="#FBB231"/>
<path fill-rule="evenodd" clip-rule="evenodd" d="M42.7314 22.9878V22.9141H42.8148V22.9835H42.8981L42.9288 22.9748L42.9507 22.9704L42.9726 22.9661L42.9858 22.9574L42.9989 22.9488L43.0077 22.9401L43.0121 22.9227V22.9141H43.0822L43.0779 22.9401L43.0691 22.9574L43.0603 22.9748L43.0472 22.9878H42.7314Z" fill="#FBB231"/>
<path fill-rule="evenodd" clip-rule="evenodd" d="M43.2659 22.9878L43.2615 22.9184V22.9141H43.3579L43.3667 22.9878H43.2659Z" fill="#FBB231"/>
<path fill-rule="evenodd" clip-rule="evenodd" d="M42.4285 22.9873V22.996L42.4373 23.0914L42.4636 23.1825L42.5118 23.2606L42.5688 23.33L42.639 23.3863L42.7179 23.4254L42.8056 23.4514L42.8977 23.4601L42.9898 23.4514L43.0775 23.4254L43.1564 23.3863L43.2266 23.33L43.2836 23.2606L43.3318 23.1825L43.3581 23.0914L43.3669 22.996V22.9873H43.266V22.996L43.2617 23.0784L43.2397 23.1478L43.209 23.2128L43.1652 23.2692L43.1126 23.3126L43.0468 23.3516L42.9723 23.3733L42.8977 23.382L42.8232 23.3733L42.7486 23.3516L42.6828 23.3126L42.6302 23.2692L42.5864 23.2128L42.5557 23.1478L42.5338 23.0784L42.5294 22.996V22.9873H42.4285Z" fill="#FBB231"/>
<path fill-rule="evenodd" clip-rule="evenodd" d="M42.7314 22.9873V23.1781H42.8148V23.0133H42.8981L42.9989 23.1781H43.0647L42.9638 23.0133H42.9858L43.0121 23.009L43.0296 23.0003L43.0472 22.9873H42.7314Z" fill="#FBB231"/>
<path fill-rule="evenodd" clip-rule="evenodd" d="M27.9189 16.9766L27.8926 16.7814L27.8444 16.6036L27.7786 16.4518L27.6953 16.3217L27.5988 16.2089L27.4892 16.1178L27.3664 16.0484L27.2393 15.9877L27.1033 15.94L26.9674 15.9053H26.8315H26.6956H26.564H26.2965L26.0554 15.9443L25.8405 16.005L25.6476 16.0874L25.4809 16.1872L25.3318 16.2956L25.2047 16.4214L25.0951 16.5559L24.9942 16.6556L24.9197 16.8031L24.8583 16.9462L24.81 17.085L24.7706 17.2238L24.7443 17.3539V17.4754V17.5795V17.8484V18.0913L24.7837 18.3125L24.8363 18.5076L24.9197 18.6811L25.0161 18.8329L25.1257 18.9674L25.2573 19.0802L25.3976 19.1756L25.5467 19.258L25.7046 19.3231L25.8668 19.3708L26.0334 19.4098H26.2001H26.3667H26.9937H27.0639H27.1297H27.191H27.248H27.3007H27.3533H27.4059H27.4541H27.5068L27.5594 19.3794L27.612 19.3534L27.7479 18.5467L27.6515 18.6031L27.5594 18.6551L27.4629 18.6941L27.3664 18.7288L27.2787 18.7592H27.1867H27.0946H27.0069H26.9148H26.6517H26.564H26.4807H26.3974H26.3097H26.2439L26.1474 18.6508L26.0773 18.6248L26.0203 18.5857L25.9589 18.5467L25.9063 18.499L25.8712 18.4469L25.8273 18.3905L25.7879 18.3385L25.7528 18.2734L25.7046 18.217V18.1563V18.0956V17.9742V17.9308H27.8619V17.7313L27.9146 17.4537V17.2065L27.9189 16.9766ZM27.0156 17.2802H25.801V17.2368V17.1674V17.098L25.8273 17.033L25.858 16.9766L25.8843 16.9202L25.9238 16.8638L25.9633 16.8161L26.0071 16.7684L26.051 16.7294L26.0992 16.6947L26.1474 16.6643L26.2044 16.6383H26.2614H26.3184H26.3798H26.4412H26.5026H26.5596H26.6122H26.6649L26.7131 16.6643L26.7657 16.6947L26.8096 16.725L26.849 16.7641L26.8797 16.8118L26.9148 16.8595L26.9367 16.9159L26.963 16.9809V17.046V17.1978L27.0156 17.2802Z" fill="white"/>
</g>
<defs>
<clipPath id="clip0_1_10842">
<rect width="55" height="34" fill="white"/>
</clipPath>
</defs>
</svg>
