<svg width="248" height="69" viewBox="0 0 248 69" fill="none" xmlns="http://www.w3.org/2000/svg">
<path d="M107.278 40V28.3636H111.426C112.331 28.3636 113.081 28.5284 113.676 28.858C114.271 29.1875 114.716 29.6383 115.011 30.2102C115.307 30.7784 115.455 31.4186 115.455 32.1307C115.455 32.8466 115.305 33.4905 115.006 34.0625C114.71 34.6307 114.263 35.0814 113.665 35.4148C113.07 35.7443 112.322 35.9091 111.42 35.9091H108.568V34.4205H111.261C111.833 34.4205 112.297 34.322 112.653 34.125C113.009 33.9242 113.271 33.6515 113.438 33.3068C113.604 32.9621 113.688 32.5701 113.688 32.1307C113.688 31.6913 113.604 31.3011 113.438 30.9602C113.271 30.6193 113.008 30.3523 112.648 30.1591C112.292 29.9659 111.822 29.8693 111.239 29.8693H109.034V40H107.278ZM119.075 28.3636V40H117.376V28.3636H119.075ZM123.901 40.1932C123.348 40.1932 122.848 40.0909 122.401 39.8864C121.954 39.678 121.599 39.3769 121.338 38.983C121.08 38.589 120.952 38.1061 120.952 37.5341C120.952 37.0417 121.046 36.6364 121.236 36.3182C121.425 36 121.681 35.7481 122.003 35.5625C122.325 35.3769 122.685 35.2367 123.082 35.142C123.48 35.0473 123.885 34.9754 124.298 34.9261C124.821 34.8655 125.245 34.8163 125.571 34.7784C125.897 34.7367 126.134 34.6705 126.281 34.5795C126.429 34.4886 126.503 34.3409 126.503 34.1364V34.0966C126.503 33.6004 126.363 33.2159 126.082 32.9432C125.806 32.6705 125.393 32.5341 124.844 32.5341C124.272 32.5341 123.821 32.661 123.491 32.9148C123.166 33.1648 122.94 33.4432 122.815 33.75L121.219 33.3864C121.408 32.8561 121.685 32.428 122.048 32.1023C122.416 31.7727 122.838 31.5341 123.315 31.3864C123.793 31.2348 124.295 31.1591 124.821 31.1591C125.17 31.1591 125.539 31.2008 125.929 31.2841C126.323 31.3636 126.69 31.5114 127.031 31.7273C127.376 31.9432 127.658 32.2519 127.878 32.6534C128.098 33.0511 128.207 33.5682 128.207 34.2045V40H126.548V38.8068H126.48C126.37 39.0265 126.205 39.2424 125.986 39.4545C125.766 39.6667 125.484 39.8428 125.139 39.983C124.795 40.1231 124.382 40.1932 123.901 40.1932ZM124.27 38.8295C124.74 38.8295 125.141 38.7367 125.474 38.5511C125.812 38.3655 126.067 38.1231 126.241 37.8239C126.42 37.5208 126.509 37.197 126.509 36.8523V35.7273C126.448 35.7879 126.33 35.8447 126.156 35.8977C125.986 35.947 125.791 35.9905 125.571 36.0284C125.351 36.0625 125.137 36.0947 124.929 36.125C124.721 36.1515 124.546 36.1742 124.406 36.1932C124.077 36.2348 123.776 36.3049 123.503 36.4034C123.234 36.5019 123.018 36.6439 122.855 36.8295C122.696 37.0114 122.616 37.2538 122.616 37.5568C122.616 37.9773 122.772 38.2955 123.082 38.5114C123.393 38.7235 123.789 38.8295 124.27 38.8295ZM131.232 43.2727C130.978 43.2727 130.747 43.2519 130.538 43.2102C130.33 43.1723 130.175 43.1307 130.072 43.0852L130.482 41.6932C130.792 41.7765 131.069 41.8125 131.311 41.8011C131.554 41.7898 131.768 41.6989 131.953 41.5284C132.143 41.358 132.309 41.0795 132.453 40.6932L132.663 40.1136L129.47 31.2727H131.288L133.499 38.0455H133.589L135.8 31.2727H137.624L134.027 41.1648C133.86 41.6193 133.648 42.0038 133.391 42.3182C133.133 42.6364 132.826 42.875 132.47 43.0341C132.114 43.1932 131.701 43.2727 131.232 43.2727ZM144.608 28.3636L147.847 37.8409H147.977L151.216 28.3636H153.114L148.926 40H146.898L142.71 28.3636H144.608ZM154.658 40V31.2727H156.357V40H154.658ZM155.516 29.9261C155.22 29.9261 154.966 29.8277 154.754 29.6307C154.546 29.4299 154.442 29.1913 154.442 28.9148C154.442 28.6345 154.546 28.3958 154.754 28.1989C154.966 27.9981 155.22 27.8977 155.516 27.8977C155.811 27.8977 156.063 27.9981 156.271 28.1989C156.483 28.3958 156.589 28.6345 156.589 28.9148C156.589 29.1913 156.483 29.4299 156.271 29.6307C156.063 29.8277 155.811 29.9261 155.516 29.9261ZM161.909 40.1705C161.205 40.1705 160.576 39.9905 160.023 39.6307C159.473 39.267 159.042 38.75 158.727 38.0795C158.417 37.4053 158.261 36.5966 158.261 35.6534C158.261 34.7102 158.419 33.9034 158.733 33.233C159.051 32.5625 159.487 32.0492 160.04 31.6932C160.593 31.3371 161.22 31.1591 161.92 31.1591C162.462 31.1591 162.898 31.25 163.227 31.4318C163.561 31.6098 163.818 31.8182 164 32.0568C164.186 32.2955 164.33 32.5057 164.432 32.6875H164.534V28.3636H166.233V40H164.574V38.642H164.432C164.33 38.8277 164.182 39.0398 163.989 39.2784C163.799 39.517 163.538 39.7254 163.205 39.9034C162.871 40.0814 162.439 40.1705 161.909 40.1705ZM162.284 38.7216C162.773 38.7216 163.186 38.5928 163.523 38.3352C163.864 38.0739 164.121 37.7121 164.295 37.25C164.473 36.7879 164.562 36.25 164.562 35.6364C164.562 35.0303 164.475 34.5 164.301 34.0455C164.127 33.5909 163.871 33.2367 163.534 32.983C163.197 32.7292 162.78 32.6023 162.284 32.6023C161.773 32.6023 161.347 32.7348 161.006 33C160.665 33.2652 160.407 33.6269 160.233 34.0852C160.063 34.5436 159.977 35.0606 159.977 35.6364C159.977 36.2197 160.064 36.7443 160.239 37.2102C160.413 37.6761 160.67 38.0455 161.011 38.3182C161.356 38.5871 161.78 38.7216 162.284 38.7216ZM172.419 40.1761C171.559 40.1761 170.819 39.9924 170.197 39.625C169.58 39.2538 169.103 38.733 168.766 38.0625C168.432 37.3883 168.266 36.5985 168.266 35.6932C168.266 34.7992 168.432 34.0114 168.766 33.3295C169.103 32.6477 169.572 32.1155 170.175 31.733C170.781 31.3504 171.489 31.1591 172.3 31.1591C172.792 31.1591 173.269 31.2405 173.732 31.4034C174.194 31.5663 174.608 31.822 174.976 32.1705C175.343 32.5189 175.633 32.9716 175.845 33.5284C176.057 34.0814 176.163 34.7538 176.163 35.5455V36.1477H169.226V34.875H174.499C174.499 34.428 174.408 34.0322 174.226 33.6875C174.044 33.339 173.788 33.0644 173.459 32.8636C173.133 32.6629 172.75 32.5625 172.311 32.5625C171.834 32.5625 171.417 32.6799 171.061 32.9148C170.709 33.1458 170.436 33.4489 170.243 33.8239C170.054 34.1951 169.959 34.5985 169.959 35.0341V36.0284C169.959 36.6117 170.061 37.108 170.266 37.517C170.474 37.9261 170.764 38.2386 171.135 38.4545C171.506 38.6667 171.94 38.7727 172.436 38.7727C172.758 38.7727 173.052 38.7273 173.317 38.6364C173.582 38.5417 173.811 38.4015 174.004 38.2159C174.197 38.0303 174.345 37.8011 174.447 37.5284L176.055 37.8182C175.927 38.2917 175.696 38.7064 175.362 39.0625C175.033 39.4148 174.618 39.6894 174.118 39.8864C173.622 40.0795 173.055 40.1761 172.419 40.1761ZM181.724 40.1761C180.906 40.1761 180.192 39.9886 179.582 39.6136C178.973 39.2386 178.499 38.714 178.162 38.0398C177.825 37.3655 177.656 36.5777 177.656 35.6761C177.656 34.7708 177.825 33.9792 178.162 33.3011C178.499 32.6231 178.973 32.0966 179.582 31.7216C180.192 31.3466 180.906 31.1591 181.724 31.1591C182.543 31.1591 183.257 31.3466 183.866 31.7216C184.476 32.0966 184.95 32.6231 185.287 33.3011C185.624 33.9792 185.793 34.7708 185.793 35.6761C185.793 36.5777 185.624 37.3655 185.287 38.0398C184.95 38.714 184.476 39.2386 183.866 39.6136C183.257 39.9886 182.543 40.1761 181.724 40.1761ZM181.73 38.75C182.26 38.75 182.7 38.6098 183.048 38.3295C183.397 38.0492 183.654 37.6761 183.821 37.2102C183.991 36.7443 184.077 36.2311 184.077 35.6705C184.077 35.1136 183.991 34.6023 183.821 34.1364C183.654 33.6667 183.397 33.2898 183.048 33.0057C182.7 32.7216 182.26 32.5795 181.73 32.5795C181.196 32.5795 180.753 32.7216 180.401 33.0057C180.052 33.2898 179.793 33.6667 179.622 34.1364C179.455 34.6023 179.372 35.1136 179.372 35.6705C179.372 36.2311 179.455 36.7443 179.622 37.2102C179.793 37.6761 180.052 38.0492 180.401 38.3295C180.753 38.6098 181.196 38.75 181.73 38.75Z" fill="white"/>
<path opacity="0.45" d="M51.0001 7C46.1192 3.58873 40.9136 2.35207 35.0001 2.00004C29.0866 1.648 23.5606 3.00323 18.3212 5.81203C13.0818 8.62084 8.69828 12.8327 5.6452 17.9917C2.59211 23.1507 0.985816 29.0602 1.00022 35.0803C1.01462 41.1005 2.64917 47.002 5.72691 52.1458C8.80464 57.2896 13.2083 61.4798 18.4611 64.2627C23.7138 67.0456 29.6156 68.3151 35.5273 67.9339C41.4391 67.5526 47.1356 65.4354 52.0001 62" stroke="#05C2DF" stroke-width="2" stroke-miterlimit="1.51696"/>
<path d="M34.0307 61.1555C48.6178 61.1555 60.4431 49.3649 60.4431 34.8204C60.4431 20.276 48.6178 8.48535 34.0307 8.48535C19.4435 8.48535 7.61829 20.276 7.61829 34.8204C7.61829 49.3649 19.4435 61.1555 34.0307 61.1555Z" stroke="#05C2DF" stroke-miterlimit="10"/>
<path opacity="0.45" d="M86.0001 12H56.0001V14H86.0001V12Z" fill="#05C2DF"/>
<path opacity="0.45" d="M86.0001 56H56.0001V58H86.0001V56Z" fill="#05C2DF"/>
<path d="M45 35L27.75 45.3923L27.75 24.6077L45 35Z" fill="white"/>
<path opacity="0.45" d="M91 12H89V14H91V12Z" fill="#05C2DF"/>
<path opacity="0.45" d="M88 12H86V14H88V12Z" fill="#05C2DF"/>
<path opacity="0.45" d="M94 12H92V14H94V12Z" fill="#05C2DF"/>
<path opacity="0.45" d="M97 12H95V14H97V12Z" fill="#05C2DF"/>
<path opacity="0.45" d="M100 12H98V14H100V12Z" fill="#05C2DF"/>
<path opacity="0.45" d="M104 12H102V14H104V12Z" fill="#05C2DF"/>
<path opacity="0.45" d="M108 12H106V14H108V12Z" fill="#05C2DF"/>
<path opacity="0.45" d="M112 12H110V14H112V12Z" fill="#05C2DF"/>
<path opacity="0.45" d="M117 12H115V14H117V12Z" fill="#05C2DF"/>
<path opacity="0.45" d="M122 12H120V14H122V12Z" fill="#05C2DF"/>
<path opacity="0.45" d="M127 12H125V14H127V12Z" fill="#05C2DF"/>
<path opacity="0.45" d="M132 12H130V14H132V12Z" fill="#05C2DF"/>
<path opacity="0.45" d="M137 12H135V14H137V12Z" fill="#05C2DF"/>
<path opacity="0.45" d="M142 12H140V14H142V12Z" fill="#05C2DF"/>
<path opacity="0.45" d="M153.6 12.23H152V13.83H153.6V12.23Z" fill="#05C2DF"/>
<path opacity="0.45" d="M159.6 12.23H158V13.83H159.6V12.23Z" fill="#05C2DF"/>
<path opacity="0.45" d="M165.6 12.23H164V13.83H165.6V12.23Z" fill="#05C2DF"/>
<path opacity="0.45" d="M171.3 12.4302H170V13.7302H171.3V12.4302Z" fill="#05C2DF"/>
<path opacity="0.45" d="M178.3 12.4302H177V13.7302H178.3V12.4302Z" fill="#05C2DF"/>
<path opacity="0.45" d="M185.3 12.4302H184V13.7302H185.3V12.4302Z" fill="#05C2DF"/>
<path opacity="0.45" d="M192.3 12.4302H191V13.7302H192.3V12.4302Z" fill="#05C2DF"/>
<path opacity="0.45" d="M200.3 12.4302H199V13.7302H200.3V12.4302Z" fill="#05C2DF"/>
<path opacity="0.45" d="M209.3 12.4302H208V13.7302H209.3V12.4302Z" fill="#05C2DF"/>
<path opacity="0.45" d="M147.6 12.23H146V13.83H147.6V12.23Z" fill="#05C2DF"/>
<path opacity="0.45" d="M248 12.5H247V13.5H248V12.5Z" fill="#05C2DF"/>
<path opacity="0.45" d="M234 12.5H233V13.5H234V12.5Z" fill="#05C2DF"/>
<path opacity="0.45" d="M221 12.5H220V13.5H221V12.5Z" fill="#05C2DF"/>
<path opacity="0.45" d="M91 56H89V58H91V56Z" fill="#05C2DF"/>
<path opacity="0.45" d="M88 56H86V58H88V56Z" fill="#05C2DF"/>
<path opacity="0.45" d="M94 56H92V58H94V56Z" fill="#05C2DF"/>
<path opacity="0.45" d="M97 56H95V58H97V56Z" fill="#05C2DF"/>
<path opacity="0.45" d="M100 56H98V58H100V56Z" fill="#05C2DF"/>
<path opacity="0.45" d="M104 56H102V58H104V56Z" fill="#05C2DF"/>
<path opacity="0.45" d="M108 56H106V58H108V56Z" fill="#05C2DF"/>
<path opacity="0.45" d="M112 56H110V58H112V56Z" fill="#05C2DF"/>
<path opacity="0.45" d="M117 56H115V58H117V56Z" fill="#05C2DF"/>
<path opacity="0.45" d="M122 56H120V58H122V56Z" fill="#05C2DF"/>
<path opacity="0.45" d="M127 56H125V58H127V56Z" fill="#05C2DF"/>
<path opacity="0.45" d="M132 56H130V58H132V56Z" fill="#05C2DF"/>
<path opacity="0.45" d="M137 56H135V58H137V56Z" fill="#05C2DF"/>
<path opacity="0.45" d="M142 56H140V58H142V56Z" fill="#05C2DF"/>
<path opacity="0.45" d="M153.6 56.23H152V57.83H153.6V56.23Z" fill="#05C2DF"/>
<path opacity="0.45" d="M159.6 56.23H158V57.83H159.6V56.23Z" fill="#05C2DF"/>
<path opacity="0.45" d="M165.6 56.23H164V57.83H165.6V56.23Z" fill="#05C2DF"/>
<path opacity="0.45" d="M171.3 56.4302H170V57.7302H171.3V56.4302Z" fill="#05C2DF"/>
<path opacity="0.45" d="M178.3 56.4302H177V57.7302H178.3V56.4302Z" fill="#05C2DF"/>
<path opacity="0.45" d="M185.3 56.4302H184V57.7302H185.3V56.4302Z" fill="#05C2DF"/>
<path opacity="0.45" d="M192.3 56.4302H191V57.7302H192.3V56.4302Z" fill="#05C2DF"/>
<path opacity="0.45" d="M200.3 56.4302H199V57.7302H200.3V56.4302Z" fill="#05C2DF"/>
<path opacity="0.45" d="M209.3 56.4302H208V57.7302H209.3V56.4302Z" fill="#05C2DF"/>
<path opacity="0.45" d="M147.6 56.23H146V57.83H147.6V56.23Z" fill="#05C2DF"/>
<path opacity="0.45" d="M248 56.5H247V57.5H248V56.5Z" fill="#05C2DF"/>
<path opacity="0.45" d="M234 56.5H233V57.5H234V56.5Z" fill="#05C2DF"/>
<path opacity="0.45" d="M221 56.5H220V57.5H221V56.5Z" fill="#05C2DF"/>
</svg>
