<svg width="15" height="11" viewBox="0 0 15 11" fill="none" xmlns="http://www.w3.org/2000/svg">
<path d="M5.596 11C4.94736 11 4.27971 10.9529 3.60807 10.8586C2.4251 10.6923 1.2276 10.1378 0.888741 9.97183L0 9.53644L0.962212 9.25292C2.01403 8.94304 2.65386 8.75078 3.4459 8.44972C2.65283 8.10559 2.04161 7.48656 1.74739 6.68633L1.52354 6.07745L1.7071 6.10257C1.53304 5.94538 1.3956 5.78582 1.28905 5.64073C0.910142 5.12505 0.709528 4.49494 0.752214 3.95497L0.794328 3.4235L1.14944 3.54675C0.999634 3.29327 0.891374 3.02257 0.827745 2.73884C0.672679 2.0469 0.802454 1.31178 1.19327 0.668958L1.5026 0.160153L1.9163 0.605383C3.22469 2.01367 4.8819 2.84907 6.84878 3.09363C6.76844 2.59743 6.82864 2.11857 7.02788 1.68934C7.25985 1.18956 7.67252 0.765756 8.22091 0.463672C8.82996 0.128263 9.56856 -0.0342637 10.3006 0.00603471C11.0773 0.048794 11.7825 0.309554 12.3426 0.760629C12.6161 0.696952 12.8176 0.628967 13.09 0.537091C13.2539 0.481822 13.4397 0.419067 13.6723 0.347289L14.5292 0.0827349L13.9704 1.51276C14.0072 1.50999 14.0452 1.50764 14.0849 1.5061L15 1.46898L14.4592 2.13129C14.4281 2.16923 14.4202 2.17999 14.4093 2.19486C14.3657 2.25372 14.3114 2.32693 13.569 3.21514C13.3832 3.43755 13.2904 3.72722 13.3077 4.03095C13.3735 5.18514 13.2154 6.22941 12.8377 7.13464C12.4804 7.99106 11.9267 8.72586 11.1922 9.31865C10.2834 10.052 9.12442 10.5542 7.74748 10.8109C7.07205 10.9368 6.34673 11 5.596 11Z" fill="white"/>
</svg>
