<svg width="89" height="82" viewBox="0 0 89 82" fill="none" xmlns="http://www.w3.org/2000/svg">
<rect x="2.08105" y="2.11768" width="85.3669" height="60.2803" rx="3.5" stroke="#05C2DF"/>
<line x1="1.58105" y1="52.3442" x2="87.9479" y2="52.3442" stroke="#05C2DF"/>
<line x1="40.5215" y1="57.6104" x2="48.4741" y2="57.6104" stroke="#05C2DF" stroke-linecap="round"/>
<rect x="27.3555" y="62.9194" width="34.284" height="5.22378" stroke="#05C2DF"/>
<rect x="16.8232" y="74.4097" width="55.3491" height="5.22378" stroke="#05C2DF"/>
<path d="M18.1522 73.8883L26.9925 68.6646H62.0031L70.8434 73.8883H18.1522Z" stroke="#05C2DF"/>
<path d="M25.0809 13.9773L33.0809 36.3409H33.1718L41.1718 13.9773H41.9445L33.6263 37.25H32.6263L24.3081 13.9773H25.0809ZM46.6178 37.25V13.9773H53.436C54.739 13.9773 55.8905 14.2538 56.8905 14.8068C57.8981 15.3598 58.686 16.1326 59.2542 17.125C59.8299 18.1174 60.1178 19.2803 60.1178 20.6136C60.1178 21.9318 59.8299 23.0871 59.2542 24.0795C58.686 25.0644 57.8981 25.8333 56.8905 26.3864C55.8905 26.9318 54.739 27.2045 53.436 27.2045H46.9814V26.4773H53.436C54.6027 26.4773 55.633 26.2348 56.5269 25.75C57.4208 25.2652 58.1216 24.5833 58.6292 23.7045C59.1367 22.8258 59.3905 21.7955 59.3905 20.6136C59.3905 19.4242 59.1367 18.3864 58.6292 17.5C58.1216 16.6136 57.4208 15.928 56.5269 15.4432C55.633 14.9508 54.6027 14.7045 53.436 14.7045H47.3451V37.25H46.6178ZM55.4814 26.6591L61.2087 37.25H60.3905L54.6633 26.6591H55.4814Z" fill="#05C2DF"/>
</svg>
