<svg width="112" height="82" viewBox="0 0 112 82" fill="none" xmlns="http://www.w3.org/2000/svg">
<path d="M49.0925 18.1754C51.8433 21.9701 53.2975 26.4595 53.2975 31.1576C53.2975 43.3661 43.3651 53.2985 31.1566 53.2985C18.948 53.2985 9.01562 43.3661 9.01562 31.1576C9.01562 18.949 18.948 9.0166 31.1566 9.0166C35.847 9.0166 40.3299 10.4662 44.1207 13.2088" stroke="#05C2DF" stroke-width="1.00668" stroke-linejoin="round"/>
<path d="M31.1581 40.0134C26.2761 40.0134 22.3031 36.0405 22.3031 31.1581C22.3031 26.2758 26.2758 22.3031 31.1581 22.3031C36.0404 22.3031 40.0131 26.2758 40.0131 31.1581C40.0131 36.0405 36.0402 40.0134 31.1581 40.0134Z" stroke="#05C2DF" stroke-width="1.00668"/>
<path d="M109.795 1C100.543 1 93.0165 8.52701 93.0165 17.7787V26.5216C90.804 27.1779 88.7679 28.3646 87.0703 30.0168" stroke="#05C2DF" stroke-width="1.00668"/>
<path d="M48.1925 56.0312C52.5397 53.0444 56.0688 48.9501 58.3676 44.1569M91.8196 52.5932C90.1687 51.0858 88.3111 49.829 86.2978 48.8574L85.9617 48.6952M83.2741 36.3503C82.8965 37.6575 82.7051 39.0029 82.7051 40.3499V47.1238L80.9847 46.2935C74.3589 43.0961 67.0416 41.2663 59.6857 40.9428C60.7413 37.8733 61.3157 34.5821 61.3157 31.159C61.3157 14.5298 47.7869 1.00098 31.158 1.00098C14.529 1.00098 1 14.5298 1 31.159C1 47.7881 14.5288 61.3169 31.158 61.3169C36.2488 61.3169 41.048 60.0471 45.2587 57.8104C46.8264 59.1695 72.7266 81.437 86.2735 81.437C86.4391 81.437 86.6041 81.4336 86.7661 81.4268C100.322 80.861 110.57 69.745 111 69.2721" stroke="#05C2DF" stroke-width="1.00668"/>
</svg>
