<svg width="84" height="84" viewBox="0 0 84 84" fill="none" xmlns="http://www.w3.org/2000/svg">
<g clip-path="url(#clip0_1_5792)">
<path d="M76.2249 7.07864V80.6686H73.8933H63.5113H60.6799H37.0844H34.2529H27.6461H24.8147H24.3708V78.8091C24.3708 77.7507 23.513 76.8934 22.4551 76.8934C21.3973 76.8934 20.5394 77.7507 20.5394 78.8091V80.6686H20.0956H17.2642H10.6574L8.96661 80.6685L8.32617 80.6685V27.8426C8.32617 27.3366 8.73605 26.9269 9.24187 26.9269H21.0396H21.5396V26.4269V14.6291C21.5396 14.1232 21.9495 13.7134 22.4553 13.7134H26.7025H27.2025V13.2134V7.07864C27.2025 6.57273 27.6124 6.16294 28.1182 6.16294H34.253H34.753V5.66294V1.4157C34.753 0.909827 35.163 0.5 35.6687 0.5C36.1744 0.5 36.5844 0.909828 36.5844 1.4157V5.66294V6.16294H37.0844H43.2194C43.7251 6.16294 44.1351 6.57277 44.1351 7.07864V13.2134V13.7134H44.6351H47.4665H47.9665V13.2134V7.07864C47.9665 6.57273 48.3763 6.16294 48.8822 6.16294H75.3092C75.8149 6.16294 76.2249 6.57277 76.2249 7.07864Z" stroke="#05C2DF" stroke-linecap="round"/>
<path d="M43 77.5001V51.0733" stroke="#05C2DF" stroke-linecap="round"/>
<path d="M49 77.4269V51" stroke="#05C2DF" stroke-linecap="round"/>
<path d="M55 77.4269V51" stroke="#05C2DF" stroke-linecap="round"/>
<path d="M57.3226 16.5171C57.3226 17.1611 56.8008 17.6828 56.1569 17.6828C55.513 17.6828 54.9912 17.1611 54.9912 16.5173V14.6296C54.9912 13.9856 55.5132 13.4639 56.1569 13.4639C56.8006 13.4639 57.3226 13.9856 57.3226 14.6296V16.5171Z" fill="#05C2DF" stroke="#05040B" stroke-width="0.5" stroke-linecap="round"/>
<path d="M62.9857 16.5171C62.9857 17.1611 62.4639 17.6828 61.82 17.6828C61.1761 17.6828 60.6543 17.1611 60.6543 16.5173V14.6296C60.6543 13.9856 61.1763 13.4639 61.82 13.4639C62.4637 13.4639 62.9857 13.9856 62.9857 14.6296V16.5171Z" fill="#05C2DF" stroke="#05040B" stroke-width="0.5" stroke-linecap="round"/>
<path d="M68.6498 16.5171C68.6498 17.1611 68.1279 17.6828 67.4841 17.6828C66.8402 17.6828 66.3184 17.1611 66.3184 16.5173V14.6296C66.3184 13.9856 66.8403 13.4639 67.4841 13.4639C68.1278 13.4639 68.6498 13.9856 68.6498 14.6296V16.5171Z" fill="#05C2DF" stroke="#05040B" stroke-width="0.5" stroke-linecap="round"/>
<path d="M57.3226 25.9548C57.3226 26.5988 56.8008 27.1205 56.1569 27.1205C55.513 27.1205 54.9912 26.5988 54.9912 25.9548V24.0671C54.9912 23.4231 55.5132 22.9014 56.1569 22.9014C56.8006 22.9014 57.3226 23.4231 57.3226 24.0671V25.9548Z" fill="#05C2DF" stroke="#05040B" stroke-width="0.5" stroke-linecap="round"/>
<path d="M62.9857 25.9548C62.9857 26.5988 62.4639 27.1205 61.82 27.1205C61.1761 27.1205 60.6543 26.5988 60.6543 25.9548V24.0671C60.6543 23.4231 61.1763 22.9014 61.82 22.9014C62.4637 22.9014 62.9857 23.4231 62.9857 24.0671V25.9548Z" fill="#05C2DF" stroke="#05040B" stroke-width="0.5" stroke-linecap="round"/>
<path d="M68.6498 25.9548C68.6498 26.5988 68.1279 27.1205 67.4841 27.1205C66.8402 27.1205 66.3184 26.5988 66.3184 25.9548V24.0671C66.3184 23.4231 66.8403 22.9014 67.4841 22.9014C68.1278 22.9014 68.6498 23.4231 68.6498 24.0671V25.9548Z" fill="#05C2DF" stroke="#05040B" stroke-width="0.5" stroke-linecap="round"/>
<path d="M57.3226 35.3932C57.3226 36.0372 56.8008 36.5589 56.1569 36.5589C55.5131 36.5589 54.9912 36.0371 54.9912 35.3932V33.5055C54.9912 32.8616 55.5132 32.3398 56.1569 32.3398C56.8006 32.3398 57.3226 32.8616 57.3226 33.5055V35.3932Z" fill="#05C2DF" stroke="#05040B" stroke-width="0.5" stroke-linecap="round"/>
<path d="M62.9857 35.3932C62.9857 36.0372 62.4639 36.5589 61.82 36.5589C61.1761 36.5589 60.6543 36.0371 60.6543 35.3932V33.5055C60.6543 32.8616 61.1763 32.3398 61.82 32.3398C62.4637 32.3398 62.9857 32.8616 62.9857 33.5055V35.3932Z" fill="#05C2DF" stroke="#05040B" stroke-width="0.5" stroke-linecap="round"/>
<path d="M68.6498 35.3932C68.6498 36.0372 68.1279 36.5589 67.4841 36.5589C66.8402 36.5589 66.3184 36.0371 66.3184 35.3932V33.5055C66.3184 32.8616 66.8403 32.3398 67.4841 32.3398C68.1278 32.3398 68.6498 32.8616 68.6498 33.5055V35.3932Z" fill="#05C2DF" stroke="#05040B" stroke-width="0.5" stroke-linecap="round"/>
<path d="M17.683 39.1686C17.683 39.8126 17.1611 40.3343 16.5173 40.3343C15.8736 40.3343 15.3516 39.8125 15.3516 39.1686V37.2809C15.3516 36.637 15.8735 36.1152 16.5173 36.1152C17.161 36.1152 17.683 36.637 17.683 37.2809V39.1686Z" fill="#05C2DF" stroke="#05040B" stroke-width="0.5" stroke-linecap="round"/>
<path d="M23.346 39.1686C23.346 39.8126 22.8242 40.3343 22.1803 40.3343C21.5365 40.3343 21.0146 39.8125 21.0146 39.1686V37.2809C21.0146 36.637 21.5366 36.1152 22.1803 36.1152C22.8241 36.1152 23.346 36.637 23.346 37.2809V39.1686Z" fill="#05C2DF" stroke="#05040B" stroke-width="0.5" stroke-linecap="round"/>
<path d="M29.0081 39.1686C29.0081 39.8126 28.4863 40.3343 27.8425 40.3343C27.1986 40.3343 26.6768 39.8125 26.6768 39.1686V37.2809C26.6768 36.637 27.1987 36.1152 27.8425 36.1152C28.4862 36.1152 29.0081 36.637 29.0081 37.2809V39.1686Z" fill="#05C2DF" stroke="#05040B" stroke-width="0.5" stroke-linecap="round"/>
<path d="M17.683 48.6071C17.683 49.2511 17.1611 49.7728 16.5173 49.7728C15.8736 49.7728 15.3516 49.2509 15.3516 48.6071V46.7194C15.3516 46.0754 15.8735 45.5537 16.5173 45.5537C17.161 45.5537 17.683 46.0754 17.683 46.7194V48.6071Z" fill="#05C2DF" stroke="#05040B" stroke-width="0.5" stroke-linecap="round"/>
<path d="M23.346 48.6071C23.346 49.2511 22.8242 49.7728 22.1803 49.7728C21.5365 49.7728 21.0146 49.251 21.0146 48.6071V46.7194C21.0146 46.0754 21.5366 45.5537 22.1803 45.5537C22.8241 45.5537 23.346 46.0754 23.346 46.7194V48.6071Z" fill="#05C2DF" stroke="#05040B" stroke-width="0.5" stroke-linecap="round"/>
<path d="M29.0081 48.6071C29.0081 49.2511 28.4863 49.7728 27.8425 49.7728C27.1986 49.7728 26.6768 49.251 26.6768 48.6071V46.7194C26.6768 46.0754 27.1987 45.5537 27.8425 45.5537C28.4862 45.5537 29.0081 46.0754 29.0081 46.7194V48.6071Z" fill="#05C2DF" stroke="#05040B" stroke-width="0.5" stroke-linecap="round"/>
<path d="M17.683 58.0446C17.683 58.6886 17.1611 59.2103 16.5173 59.2103C15.8735 59.2103 15.3516 58.6886 15.3516 58.0446V56.1569C15.3516 55.5129 15.8735 54.9912 16.5173 54.9912C17.161 54.9912 17.683 55.5129 17.683 56.1569V58.0446Z" fill="#05C2DF" stroke="#05040B" stroke-width="0.5" stroke-linecap="round"/>
<path d="M23.346 58.0446C23.346 58.6886 22.8242 59.2103 22.1803 59.2103C21.5365 59.2103 21.0146 58.6886 21.0146 58.0446V56.1569C21.0146 55.5129 21.5366 54.9912 22.1803 54.9912C22.8241 54.9912 23.346 55.5129 23.346 56.1569V58.0446Z" fill="#05C2DF" stroke="#05040B" stroke-width="0.5" stroke-linecap="round"/>
<path d="M29.0081 58.0446C29.0081 58.6886 28.4863 59.2103 27.8425 59.2103C27.1986 59.2103 26.6768 58.6886 26.6768 58.0446V56.1569C26.6768 55.5129 27.1987 54.9912 27.8425 54.9912C28.4862 54.9912 29.0081 55.5129 29.0081 56.1569V58.0446Z" fill="#05C2DF" stroke="#05040B" stroke-width="0.5" stroke-linecap="round"/>
<path d="M17.683 67.4831C17.683 68.1271 17.1611 68.6488 16.5173 68.6488C15.8735 68.6488 15.3516 68.1271 15.3516 67.4831V65.5954C15.3516 64.9514 15.8735 64.4297 16.5173 64.4297C17.161 64.4297 17.683 64.9514 17.683 65.5954V67.4831Z" fill="#05C2DF" stroke="#05040B" stroke-width="0.5" stroke-linecap="round"/>
<path d="M23.346 67.4831C23.346 68.1271 22.8242 68.6488 22.1803 68.6488C21.5365 68.6488 21.0146 68.1271 21.0146 67.4831V65.5954C21.0146 64.9514 21.5366 64.4297 22.1803 64.4297C22.8241 64.4297 23.346 64.9514 23.346 65.5954V67.4831Z" fill="#05C2DF" stroke="#05040B" stroke-width="0.5" stroke-linecap="round"/>
<path d="M29.0081 67.4831C29.0081 68.1271 28.4863 68.6488 27.8425 68.6488C27.1986 68.6488 26.6768 68.1271 26.6768 67.4831V65.5954C26.6768 64.9514 27.1987 64.4297 27.8425 64.4297C28.4862 64.4297 29.0081 64.9514 29.0081 65.5954V67.4831Z" fill="#05C2DF" stroke="#05040B" stroke-width="0.5" stroke-linecap="round"/>
<path d="M68.6498 44.8317C68.6498 45.4757 68.1279 45.9974 67.4841 45.9974C66.8402 45.9974 66.3184 45.4756 66.3184 44.8317V42.944C66.3184 42.3 66.8403 41.7783 67.4841 41.7783C68.1278 41.7783 68.6498 42.3 68.6498 42.944V44.8317Z" fill="#05C2DF" stroke="#05040B" stroke-width="0.5" stroke-linecap="round"/>
<path d="M68.6498 54.2702C68.6498 54.9142 68.1279 55.4359 67.4841 55.4359C66.8402 55.4359 66.3184 54.914 66.3184 54.2702V52.3825C66.3184 51.7385 66.8403 51.2168 67.4841 51.2168C68.1278 51.2168 68.6498 51.7385 68.6498 52.3825V54.2702Z" fill="#05C2DF" stroke="#05040B" stroke-width="0.5" stroke-linecap="round"/>
<path d="M68.6498 63.7077C68.6498 64.3517 68.1279 64.8734 67.4841 64.8734C66.8402 64.8734 66.3184 64.3515 66.3184 63.7077V61.82C66.3184 61.176 66.8403 60.6543 67.4841 60.6543C68.1278 60.6543 68.6498 61.176 68.6498 61.82V63.7077Z" fill="#05C2DF" stroke="#05040B" stroke-width="0.5" stroke-linecap="round"/>
<path d="M68.6498 73.1462C68.6498 73.7902 68.1279 74.3119 67.4841 74.3119C66.8402 74.3119 66.3184 73.79 66.3184 73.1462V71.2585C66.3184 70.6145 66.8403 70.0928 67.4841 70.0928C68.1278 70.0928 68.6498 70.6145 68.6498 71.2585V73.1462Z" fill="#05C2DF" stroke="#05040B" stroke-width="0.5" stroke-linecap="round"/>
<path d="M41.3259 20H30" stroke="#05C2DF" stroke-linecap="round"/>
<path fill-rule="evenodd" clip-rule="evenodd" d="M56 42C55.4477 42 55 42.4477 55 43V44H57V43C57 42.4477 56.5523 42 56 42Z" fill="#05C2DF"/>
<path fill-rule="evenodd" clip-rule="evenodd" d="M62 42C61.4477 42 61 42.4477 61 43V44H63V43C63 42.4477 62.5523 42 62 42Z" fill="#05C2DF"/>
</g>
<defs>
<clipPath id="clip0_1_5792">
<rect width="84" height="84" fill="white"/>
</clipPath>
</defs>
</svg>
