<svg width="83" height="83" viewBox="0 0 83 83" fill="none" xmlns="http://www.w3.org/2000/svg">
<g clip-path="url(#clip0_1_5837)">
<path d="M72.4336 22.1329C72.4336 19.3575 74.6913 17.0996 77.4669 17.0996C80.2423 17.0996 82.5001 19.3575 82.5001 22.1329C82.5001 24.9085 80.2423 27.1662 77.4669 27.1662C74.6915 27.1662 72.4336 24.9083 72.4336 22.1329Z" stroke="#05C2DF"/>
<path d="M0.5 67.7833C0.5 65.0079 2.75787 62.75 5.53328 62.75C8.30884 62.75 10.5666 65.0079 10.5666 67.7833C10.5666 70.5587 8.30884 72.8166 5.53328 72.8166C2.75787 72.8166 0.5 70.5587 0.5 67.7833Z" stroke="#05C2DF"/>
<path d="M73.9784 18.0439L63.1523 12.6309" stroke="#05C2DF"/>
<path d="M57.2168 77.4669C57.2168 74.6915 59.4745 72.4336 62.2501 72.4336C65.0256 72.4336 67.2834 74.6916 67.2834 77.467C67.2834 80.2425 65.0256 82.5003 62.2501 82.5003C59.4745 82.5003 57.2168 80.2423 57.2168 77.4669Z" stroke="#05C2DF"/>
<path d="M58.4861 73.6048L48.3564 68.2041" stroke="#05C2DF"/>
<path d="M36.4668 42.8829C36.4668 40.1075 38.7245 37.8496 41.5001 37.8496C44.2756 37.8496 46.5334 40.1075 46.5334 42.8829C46.5334 45.6583 44.2756 47.9162 41.5001 47.9162C38.7247 47.9162 36.4668 45.6584 36.4668 42.8829Z" stroke="#05C2DF"/>
<path d="M38.2526 38.6133L30.3135 32.4785" stroke="#05C2DF"/>
<path d="M51.6836 51.1835C51.6836 43.0697 58.2865 36.4668 66.4003 36.4668C74.5141 36.4668 81.117 43.0697 81.117 51.1835C81.117 59.2973 74.5141 65.9002 66.4003 65.9002C58.2865 65.9002 51.6836 59.2973 51.6836 51.1835Z" stroke="#05C2DF"/>
<path d="M61.3662 47.0333C61.3662 44.2579 63.6239 42 66.3995 42C69.175 42 71.4328 44.2579 71.4328 47.0333C71.4328 49.8087 69.175 52.0666 66.3995 52.0666C63.6241 52.0666 61.3662 49.8088 61.3662 47.0333Z" stroke="#05C2DF"/>
<path d="M73.7589 63.9155L73.7598 63.915C74.0313 63.7586 74.1996 63.4664 74.1996 63.1517V59.5052C74.1996 57.4935 72.5135 55.833 70.4126 55.833H62.3866C60.2857 55.833 58.5996 57.4937 58.5996 59.5038V63.1502C58.5996 63.4657 58.7674 63.7572 59.0403 63.9155H73.7589ZM73.7589 63.9155C71.5159 65.2136 68.9712 65.8997 66.3996 65.8997C63.8282 65.8997 61.2835 65.2136 59.0406 63.9156L73.7589 63.9155Z" stroke="#05C2DF"/>
<path d="M18.4834 67.7831C18.4834 59.6693 25.0863 53.0664 33.2001 53.0664C41.3139 53.0664 47.9168 59.6691 47.9168 67.783C47.9168 75.8968 41.3139 82.4997 33.2001 82.4997C25.0863 82.4997 18.4834 75.8969 18.4834 67.7831Z" stroke="#05C2DF"/>
<path d="M28.167 63.6329C28.167 60.8575 30.4247 58.5996 33.2003 58.5996C35.9758 58.5996 38.2335 60.8575 38.2335 63.6329C38.2335 66.4083 35.9757 68.6662 33.2003 68.6662C30.4249 68.6662 28.167 66.4084 28.167 63.6329Z" stroke="#05C2DF"/>
<path d="M40.5606 80.5156L40.5597 80.5161C38.3167 81.8142 35.7719 82.5003 33.2004 82.5003C30.6289 82.5003 28.0843 81.8142 25.8413 80.5162C25.5683 80.358 25.4004 80.0664 25.4004 79.7508V76.1043C25.4004 74.0942 27.0865 72.4336 29.1874 72.4336H37.2134C39.3143 72.4336 41.0004 74.0941 41.0004 76.1058V79.7523C41.0004 80.0671 40.8321 80.3591 40.5606 80.5156Z" stroke="#05C2DF"/>
<path d="M0.5 33.2001C0.5 25.0863 7.10289 18.4834 15.2167 18.4834C23.3304 18.4834 29.9333 25.0863 29.9334 33.2001C29.9334 41.3139 23.3306 47.9168 15.2167 47.9168C7.10289 47.9168 0.5 41.3139 0.5 33.2001Z" stroke="#05C2DF"/>
<path d="M10.1836 29.0499C10.1836 26.2745 12.4413 24.0166 15.2169 24.0166C17.9923 24.0166 20.2502 26.2745 20.2502 29.0499C20.2502 31.8253 17.9924 34.0832 15.2169 34.0832C12.4415 34.0832 10.1836 31.8253 10.1836 29.0499Z" stroke="#05C2DF"/>
<path d="M22.5772 45.9316L22.5763 45.9321C20.3333 47.2302 17.7885 47.9163 15.217 47.9163C12.6455 47.9163 10.1009 47.2302 7.85793 45.9322C7.5849 45.774 7.41699 45.4824 7.41699 45.1669V41.5204C7.41699 39.5103 9.1031 37.8496 11.204 37.8496H19.23C21.3308 37.8496 23.017 39.5102 23.017 41.5218V45.1683C23.017 45.483 22.8487 45.7752 22.5772 45.9316Z" stroke="#05C2DF"/>
<path d="M33.7002 15.2167C33.7002 7.10289 40.3031 0.5 48.4169 0.5C56.5306 0.5 63.1335 7.10289 63.1336 15.2167C63.1336 23.3306 56.5307 29.9334 48.4169 29.9334C40.3031 29.9334 33.7002 23.3306 33.7002 15.2167Z" stroke="#05C2DF"/>
<path d="M43.3828 11.0665C43.3828 8.29107 45.6405 6.0332 48.4161 6.0332C51.1915 6.0332 53.4494 8.29122 53.4494 11.0666C53.4494 13.842 51.1915 16.0998 48.4161 16.0998C45.6407 16.0998 43.3828 13.8419 43.3828 11.0665Z" stroke="#05C2DF"/>
<path d="M55.7764 27.9492L55.7755 27.9497C53.5325 29.2478 50.9878 29.9339 48.4162 29.9339C45.8448 29.9339 43.3001 29.2478 41.0572 27.9498C40.7841 27.7916 40.6162 27.5 40.6162 27.1844V23.5379C40.6162 21.5278 42.3023 19.8672 44.4032 19.8672H52.4292C54.53 19.8672 56.2162 21.5276 56.2162 23.5394V27.1859C56.2162 27.5005 56.0479 27.7927 55.7764 27.9492Z" stroke="#05C2DF"/>
<path d="M33.4038 14.4346L24.5391 21.652" stroke="#05C2DF"/>
<path d="M65.6783 36.0872L58.4609 26.3438" stroke="#05C2DF"/>
<path d="M52.1138 56.2959L46.5518 60.6263" stroke="#05C2DF"/>
<path d="M18.3444 67.4824H10.8262" stroke="#05C2DF"/>
<path d="M20.2502 5.53325V5.53328C20.2502 8.30869 17.9924 10.5666 15.2169 10.5666C12.4415 10.5666 10.1836 8.30884 10.1836 5.53328C10.1836 2.75788 12.4415 0.5 15.217 0.5C17.9924 0.5 20.2503 2.75787 20.2502 5.53325Z" stroke="#05C2DF"/>
<path d="M14.0732 10.8262V18.0436" stroke="#05C2DF"/>
</g>
<defs>
<clipPath id="clip0_1_5837">
<rect width="83" height="83" fill="white"/>
</clipPath>
</defs>
</svg>
