<svg width="54" height="34" viewBox="0 0 54 34" fill="none" xmlns="http://www.w3.org/2000/svg">
<path d="M52.1286 0H1.79709C0.804585 0 0 0.804585 0 1.79709V31.9048C0 32.8973 0.804585 33.7019 1.79709 33.7019H52.1286C53.1211 33.7019 53.9256 32.8973 53.9256 31.9048V1.79709C53.9256 0.804585 53.1211 0 52.1286 0Z" fill="#F9F9F9"/>
<path d="M24.8155 21.913H22.1801L23.8267 11.7969H26.4621L24.8155 21.913Z" fill="#0066B2"/>
<path d="M19.9661 11.7972L17.4553 18.7534L17.1586 17.2573L16.2687 12.7087C16.2171 12.426 16.059 12.1739 15.8271 12.0043C15.5951 11.8348 15.3069 11.7606 15.0219 11.7972H10.8688L10.8215 11.9692C11.7938 12.2116 12.7232 12.6017 13.5774 13.1257L15.8646 21.9263H18.6118L22.7864 11.7972H19.9661Z" fill="#0066B2"/>
<path d="M40.6842 21.9264H43.1047L40.9981 11.8103H38.8785C38.6221 11.7904 38.3661 11.8526 38.1474 11.9879C37.9287 12.1231 37.7586 12.3244 37.6618 12.5626L33.7323 21.9264H36.4795L37.0298 20.426H40.379L40.6842 21.9264ZM37.7865 18.3494L39.1709 14.5618L39.949 18.3494H37.7865Z" fill="#0066B2"/>
<path d="M33.9385 14.2309L34.3168 12.0383C33.5549 11.7709 32.7553 11.6257 31.948 11.6084C30.6367 11.6084 27.5154 12.1888 27.5154 14.9661C27.5154 17.5801 31.1612 17.6102 31.1612 18.9859C31.1612 20.3617 27.8937 20.1123 26.8146 19.2439L26.4234 21.5182C27.3634 21.9126 28.375 22.1073 29.3942 22.09C31.1913 22.09 33.9041 21.1571 33.9041 18.6248C33.9041 15.9936 30.2282 15.7486 30.2282 14.605C30.2282 13.4614 32.8121 13.6076 33.9385 14.2309Z" fill="#0066B2"/>
<path d="M17.1586 17.2573L16.2687 12.7087C16.2171 12.426 16.059 12.1739 15.8271 12.0043C15.5951 11.8348 15.3069 11.7606 15.0219 11.7972H10.8688L10.8215 11.9692C12.2506 12.3326 13.5839 13.0014 14.7296 13.9297C15.8191 14.8047 16.6573 15.9529 17.1586 17.2573Z" fill="#F9A533"/>
</svg>
